<?xml version="1.0" encoding="UTF-8"?>
<svg version="1.1" xmlns="http://www.w3.org/2000/svg" width="810" height="810">
<path d="M0 0 C3.37097035 2.6142219 4.97908042 4.70818153 7.0625 8.375 C5.76950306 11.25937779 4.40308637 13.24719421 2.0625 15.375 C4.3725 15.705 6.6825 16.035 9.0625 16.375 C9.8125 17.9375 9.8125 17.9375 10.0625 20.375 C7.39380613 26.92543041 3.17941639 30.01801826 -2.9375 33.375 C-8.54908574 35.24552858 -14.11035602 35.13105958 -19.5625 32.875 C-20.34625 32.38 -21.13 31.885 -21.9375 31.375 C-21.6075 32.365 -21.2775 33.355 -20.9375 34.375 C-20.3995498 40.72281231 -21.29171694 45.08273426 -24.9375 50.375 C-27.48166067 52.73300258 -30.05372885 54.4524859 -32.9375 56.375 C-32.49277344 56.82230469 -32.04804688 57.26960938 -31.58984375 57.73046875 C-26.98832999 62.64643675 -26.98832999 62.64643675 -26.75 66.0625 C-28.34449294 69.16756519 -29.93551107 70.60109745 -32.9375 72.375 C-36.27628973 72.21730472 -37.65459443 71.63141441 -40.1484375 69.37109375 C-40.86257812 68.52675781 -41.57671875 67.68242187 -42.3125 66.8125 C-43.09367187 65.90371094 -43.87484375 64.99492187 -44.6796875 64.05859375 C-45.42476562 63.17300781 -46.16984375 62.28742188 -46.9375 61.375 C-48.10115832 60.03904034 -49.26756228 58.70546406 -50.4375 57.375 C-50.98792969 56.73949219 -51.53835937 56.10398438 -52.10546875 55.44921875 C-53.48209068 53.89061268 -54.8851517 52.35529544 -56.30078125 50.83203125 C-57.10902344 49.95933594 -57.91726562 49.08664063 -58.75 48.1875 C-59.87341797 46.99060547 -59.87341797 46.99060547 -61.01953125 45.76953125 C-62.97113087 43.33301278 -64.09261658 41.37458611 -64.9375 38.375 C-63.6875 36.0625 -63.6875 36.0625 -61.9375 34.375 C-61.2775 34.375 -60.6175 34.375 -59.9375 34.375 C-59.9375 33.715 -59.9375 33.055 -59.9375 32.375 C-59.36 32.33375 -58.7825 32.2925 -58.1875 32.25 C-55.6356273 31.5055921 -55.6356273 31.5055921 -54.0625 28.5625 C-51.15820826 24.20606239 -47.87504351 22.02084784 -42.9375 20.375 C-36.43235054 19.82371615 -32.5165242 21.05132601 -26.9375 24.375 C-27.4325 23.385 -27.4325 23.385 -27.9375 22.375 C-28.73748059 16.45109311 -28.59284443 11.58947432 -25.375 6.4375 C-19.14999612 -1.6405283 -9.63215077 -4.93000405 0 0 Z M-14.6875 10.125 C-15.43 10.8675 -16.1725 11.61 -16.9375 12.375 C-16.9375 13.365 -16.9375 14.355 -16.9375 15.375 C-13.00076356 14.06275452 -10.71030706 12.45589673 -7.9375 9.375 C-11.05434446 7.98973579 -11.72398948 8.23912967 -14.6875 10.125 Z M-0.9375 15.375 C-2.60930274 16.32434513 -4.27483936 17.28473313 -5.9375 18.25 C-6.865625 18.78367188 -7.79375 19.31734375 -8.75 19.8671875 C-9.471875 20.36476562 -10.19375 20.86234375 -10.9375 21.375 C-10.9375 22.035 -10.9375 22.695 -10.9375 23.375 C-5.57787108 23.08171668 -5.57787108 23.08171668 -1.5 19.8125 C-0.984375 19.008125 -0.46875 18.20375 0.0625 17.375 C-0.2675 16.715 -0.5975 16.055 -0.9375 15.375 Z M-45.8125 33.5 C-47.50041147 36.31318579 -47.38901041 38.14992565 -46.9375 41.375 C-45.46133326 44.3453869 -45.46133326 44.3453869 -42.9375 46.375 C-39.9375 47.125 -39.9375 47.125 -36.9375 46.375 C-34.18568444 44.41976263 -33.13582445 43.23440593 -32.375 39.9375 C-33.20568702 36.15325913 -34.89180577 34.69237605 -37.9375 32.375 C-41.19922661 31.85312374 -42.96494985 31.79146991 -45.8125 33.5 Z " fill="#010000" transform="translate(274.9375,172.625)"/>
<path d="M0 0 C5.17705486 0.48081172 9.92848647 1.77959998 14.83203125 3.43359375 C15.54985275 3.67159195 16.26767426 3.90959015 17.00724792 4.15480042 C18.51159376 4.65534756 20.01494782 5.15888451 21.51733398 5.6652832 C23.82049752 6.44019079 26.12768905 7.20209336 28.43554688 7.96289062 C29.90129902 8.45235499 31.36680308 8.94256305 32.83203125 9.43359375 C33.52158401 9.6607457 34.21113678 9.88789764 34.92158508 10.12193298 C37.83718331 11.11300763 39.79240518 11.79240518 42 14 C41.57262104 17.89224673 40.22158794 21.49320631 38.93359375 25.17578125 C38.53076172 26.33271484 38.12792969 27.48964844 37.71289062 28.68164062 C37.29201172 29.87982422 36.87113281 31.07800781 36.4375 32.3125 C36.01275391 33.53001953 35.58800781 34.74753906 35.15039062 36.00195312 C34.10319604 39.00234211 33.05296597 42.00163259 32 45 C29.03 44.67 26.06 44.34 23 44 C21.50405827 39.28823144 22.66957096 36.38824974 24.4375 31.875 C26.40001534 27.06603189 26.40001534 27.06603189 27 22 C24.525 21.01 24.525 21.01 22 20 C21.90203125 20.54527344 21.8040625 21.09054687 21.703125 21.65234375 C20.53195165 27.5586921 18.58832224 32.56452329 16 38 C13.03 37.01 10.06 36.02 7 35 C8.35253464 28.54945018 10.03060233 22.28894321 12 16 C9.525 15.505 9.525 15.505 7 15 C6.79318604 15.57032959 6.58637207 16.14065918 6.37329102 16.72827148 C5.43924145 19.29907175 4.5009299 21.86829565 3.5625 24.4375 C3.23701172 25.33533203 2.91152344 26.23316406 2.57617188 27.15820312 C2.26357422 28.01220703 1.95097656 28.86621094 1.62890625 29.74609375 C1.1968689 30.93223267 1.1968689 30.93223267 0.75610352 32.14233398 C0 34 0 34 -1 35 C-2.66617115 35.04063832 -4.33388095 35.042721 -6 35 C-4.33071383 36.66928617 -2.19367949 37.57111631 -0.125 38.6875 C0.85984375 39.22117187 1.8446875 39.75484375 2.859375 40.3046875 C3.89578125 40.86414063 4.9321875 41.42359375 6 42 C8.0425338 43.10256178 10.08424643 44.20664663 12.125 45.3125 C13.03507813 45.80363281 13.94515625 46.29476562 14.8828125 46.80078125 C17 48 17 48 18 49 C18.46750249 53.20752241 17.57969732 55.65594791 15 59 C14.01 59 13.02 59 12 59 C11.99742187 59.56847656 11.99484375 60.13695312 11.9921875 60.72265625 C11.72033043 66.15073571 10.71386577 69.68146536 6.859375 73.609375 C3.43854828 76.16780843 0.25969648 77.06915092 -4 77 C-12.16006862 75.12318422 -19.74210832 70.04985805 -27 66 C-26.37432896 61.61422824 -25.49790735 58.69255869 -23 55 C-17.83162931 55.69498924 -13.67364234 58.10285124 -9.171875 60.56054688 C-5.62037746 62.42508308 -3.02587449 63.41936193 1 63 C1.72683931 58.92070138 1.72683931 58.92070138 1 55 C-2.00903957 52.37673474 -5.43216716 50.75025762 -9 49 C-10.38084492 48.21857282 -11.75686106 47.42846558 -13.125 46.625 C-14.07375 46.08875 -15.0225 45.5525 -16 45 C-15.49135273 40.62563349 -14.57073772 37.59903281 -12 34 C-11.01 33.505 -11.01 33.505 -10 33 C-9.79424765 30.90818443 -9.59144522 28.81604275 -9.40234375 26.72265625 C-8.64665655 21.60892831 -6.75545129 16.84283591 -5 12 C-4.63132812 10.95199219 -4.26265625 9.90398437 -3.8828125 8.82421875 C-1.15857646 1.15857646 -1.15857646 1.15857646 0 0 Z " fill="#010000" transform="translate(637,467)"/>
<path d="M0 0 C2.74076101 1.66069815 5.16299667 3.54321995 7.6796875 5.5234375 C10.99390551 7.63248533 13.28142785 6.80204497 17 6 C19.9375 7.625 19.9375 7.625 22 10 C22.04165365 11.66614608 22.04165365 13.33385392 22 15 C23.89584109 17.31377147 23.89584109 17.31377147 26 19 C24.7508258 22.45925163 23.32472205 25.14693203 21 28 C15.25 27.125 15.25 27.125 13 26 C12.01 27.32 11.02 28.64 10 30 C4.25 29.25 4.25 29.25 2 27 C2.375 24.0625 2.375 24.0625 3 21 C3 20.01 3 19.02 3 18 C1.60976888 16.53385514 1.60976888 16.53385514 -0.25 15.3125 C-0.85328125 14.87550781 -1.4565625 14.43851563 -2.078125 13.98828125 C-4.23269113 12.69512855 -4.23269113 12.69512855 -8 13 C-8.66 14.32 -9.32 15.64 -10 17 C-11.98 17 -13.96 17 -16 17 C-15.45214844 17.48726562 -14.90429688 17.97453125 -14.33984375 18.4765625 C-8.87749555 23.36158935 -3.48352529 28.31399757 1.875 33.3125 C2.51703369 33.91078613 3.15906738 34.50907227 3.82055664 35.12548828 C5.02492095 36.25124864 6.22652269 37.37997471 7.42480469 38.51220703 C8.75702844 39.77051012 10.10000358 41.01741545 11.4453125 42.26171875 C13 44 13 44 13 46.5 C11.78323174 49.54192065 10.66150809 51.07779972 8 53 C2.80889185 53.2883949 -1.1836318 49.09665608 -5 46 C-5.13019531 46.60714844 -5.26039063 47.21429687 -5.39453125 47.83984375 C-6.58127126 52.07382585 -9.19296145 54.47990849 -12.8125 56.8125 C-16.58082535 58.21638592 -19.00294388 58.49086654 -23 58 C-28.29234823 55.32550773 -32.61343671 52.09189209 -37 48.125 C-37.59683594 47.62097656 -38.19367187 47.11695313 -38.80859375 46.59765625 C-40.5 45.0703125 -40.5 45.0703125 -43 42 C-42.98181342 38.23992448 -42.43491972 36.60578104 -40.25 33.5625 C-38 32 -38 32 -35.69921875 32.08984375 C-31.06581416 33.65219291 -28.2116623 37.34991428 -24.81640625 40.75 C-21.74042096 43.20737521 -19.87571294 43.72601735 -16 44 C-13.80859312 41.28855429 -13.80859312 41.28855429 -13.9375 38.75 C-15.69835253 34.19249933 -19.60991459 30.19504271 -24 28 C-24 27.34 -24 26.68 -24 26 C-24.99 25.67 -25.98 25.34 -27 25 C-27.375 22.875 -27.375 22.875 -27 20 C-25.25677649 17.70260359 -23.30361963 15.73666661 -21 14 C-20.34 14 -19.68 14 -19 14 C-18.95875 13.154375 -18.9175 12.30875 -18.875 11.4375 C-17.72082586 6.90324446 -15.3325971 4.20884018 -12 1 C-8.18998087 -0.90500957 -4.1291078 -0.7449719 0 0 Z " fill="#010000" transform="translate(614,540)"/>
<path d="M0 0 C2.80039135 1.98508754 4.84916006 4.33863102 7 7 C8.11181641 8.35158203 8.11181641 8.35158203 9.24609375 9.73046875 C15.04197433 17.17370534 15.04197433 17.17370534 14.86328125 20.69140625 C13.64597474 23.94673723 11.90800897 25.17404088 9 27 C5 27 5 27 3.61547852 25.73071289 C3.20740967 25.1505542 2.79934082 24.57039551 2.37890625 23.97265625 C1.91806641 23.34552734 1.45722656 22.71839844 0.98242188 22.07226562 C0.03894866 20.73686819 -0.90376509 19.40093386 -1.84570312 18.06445312 C-4.62727995 14.19735895 -4.62727995 14.19735895 -8.734375 11.96875 C-11.08964061 11.77065398 -11.08964061 11.77065398 -12.8125 13.4375 C-13.204375 13.953125 -13.59625 14.46875 -14 15 C-12.31048114 21.25402007 -8.84350787 25.2535036 -4.80078125 30.1953125 C-3 33 -3 33 -3.08984375 35.22265625 C-4.53380588 38.04241062 -6.32482121 39.35841302 -9 41 C-12.73236721 40.94429303 -13.87291165 40.12767582 -16.53515625 37.453125 C-17.39039907 36.39563774 -18.23258484 35.32747873 -19.0625 34.25 C-19.48337891 33.7240625 -19.90425781 33.198125 -20.33789062 32.65625 C-21.56978768 31.11303633 -22.78511087 29.55663843 -24 28 C-24.76183594 27.08734375 -25.52367187 26.1746875 -26.30859375 25.234375 C-28 23 -28 23 -28 21 C-28.66 21 -29.32 21 -30 21 C-30 22.98 -30 24.96 -30 27 C-31.19625 27.433125 -32.3925 27.86625 -33.625 28.3125 C-37.21232201 29.6529584 -40.60611779 31.21821184 -44 33 C-43.67 33.33 -43.34 33.66 -43 34 C-42.443125 33.7834375 -41.88625 33.566875 -41.3125 33.34375 C-35.97061748 31.39468476 -31.68406515 30.24212465 -26 31 C-22.38989845 33.53475215 -21.23128604 35.20495424 -20 39.4375 C-20 43.63950974 -20.65799854 45.52477202 -23 49 C-27.91903423 53.91903423 -33.97749694 57.58098926 -41 58.3125 C-43 58 -43 58 -44 57 C-44.07179964 55.48071962 -44.08392007 53.95832518 -44.0625 52.4375 C-44.05347656 51.61121094 -44.04445313 50.78492188 -44.03515625 49.93359375 C-44.02355469 49.29550781 -44.01195312 48.65742187 -44 48 C-42.82630859 47.60167969 -42.82630859 47.60167969 -41.62890625 47.1953125 C-40.61699219 46.84210937 -39.60507812 46.48890625 -38.5625 46.125 C-37.04849609 45.60292969 -37.04849609 45.60292969 -35.50390625 45.0703125 C-32.86028249 44.25944907 -32.86028249 44.25944907 -32 42 C-32.85722656 42.30035156 -33.71445312 42.60070312 -34.59765625 42.91015625 C-46.67385296 46.92647872 -46.67385296 46.92647872 -52 45 C-55.38849026 42.13281593 -55.93875826 40.48227867 -56.5 36.0625 C-56.23150941 31.72597021 -54.92848523 29.28561757 -52 26 C-45.95630711 20.87163819 -39.68001329 18.63648881 -32 17 C-31.88269531 16.38640625 -31.76539063 15.7728125 -31.64453125 15.140625 C-30.67347501 11.91554125 -28.76245903 10.79881053 -26 9 C-24.68 9 -23.36 9 -22 9 C-21.773125 8.2575 -21.54625 7.515 -21.3125 6.75 C-19.27999539 2.49141891 -16.39751046 0.69875523 -12.25 -1.375 C-7.71785776 -2.24656582 -4.25518067 -1.79165502 0 0 Z " fill="#010000" transform="translate(573,588)"/>
<path d="M0 0 C1.74556837 2.41694081 2.89188325 4.71168868 3.9375 7.5 C5.19070753 10.44872359 6.98262812 12.52709254 9 15 C9.96070434 17.88211302 10.10581883 19.69850044 10.0625 22.6875 C10.05347656 23.49574219 10.04445312 24.30398438 10.03515625 25.13671875 C10.02355469 25.75160156 10.01195312 26.36648438 10 27 C10.78375 27.144375 11.5675 27.28875 12.375 27.4375 C15 28 15 28 17 29 C17 29.66 17 30.32 17 31 C17.66 31 18.32 31 19 31 C21.65790964 35.54059563 22.57373919 38.74072406 22 44 C19.98175772 48.08873679 17.50880639 50.51962269 13.9375 53.3125 C13.05964844 54.00988281 12.18179688 54.70726562 11.27734375 55.42578125 C9 57 9 57 7 57 C7.66 58.65 8.32 60.3 9 62 C7.02 63.65 5.04 65.3 3 67 C1.88625 66.443125 1.88625 66.443125 0.75 65.875 C-1.92195681 64.68648295 -1.92195681 64.68648295 -4.0625 65.9375 C-4.701875 66.288125 -5.34125 66.63875 -6 67 C-9.17913948 66.90065189 -10.02947514 65.97052486 -12.3125 63.6875 C-14 61 -14 61 -13.9375 58.9375 C-12.86392534 56.71877904 -11.56231572 54.90194957 -10 53 C-10.66 52.01 -11.32 51.02 -12 50 C-11.84210208 46.84204155 -11.37942404 45.42007662 -9.25 43.0625 C-7 42 -7 42 -4.3125 42.6875 C-2 44 -2 44 -1 46 C2.88913264 45.4238322 5.01054984 43.43876197 8 41 C8.66 41 9.32 41 10 41 C9.65213292 39.02463255 9.65213292 39.02463255 9 37 C8.01 36.505 8.01 36.505 7 36 C7 34.68 7 33.36 7 32 C6.319375 32.350625 5.63875 32.70125 4.9375 33.0625 C1.15960065 34.26821256 -1.1655094 33.95862265 -5 33 C-9.85517061 30.11001749 -12.26772349 25.79020392 -15 21 C-14.67566492 26.35152885 -11.50295176 29.28280043 -8 33 C-9.07401108 35.91517292 -9.77810176 37.77810176 -12 40 C-15.15727729 40.0717563 -17.18464409 39.69747313 -19.62109375 37.61328125 C-25.09225625 31.54179169 -27.278468 25.63271859 -27.59375 17.52734375 C-26.52255079 12.96769973 -23.68420425 10.18379543 -19.96630859 7.57055664 C-17.65908644 6.15725172 -15.3181575 4.84793976 -12.9375 3.5625 C-12.13505859 3.10423828 -11.33261719 2.64597656 -10.50585938 2.17382812 C-9.72919922 1.74650391 -8.95253906 1.31917969 -8.15234375 0.87890625 C-7.45101318 0.4929126 -6.74968262 0.10691895 -6.02709961 -0.29077148 C-3.55830904 -1.15453598 -2.40062919 -0.98793289 0 0 Z M-6 14 C-6 18.26826873 -5.62386487 18.93882432 -3 22 C-2.01 21.67 -1.02 21.34 0 21 C-0.5590888 17.75728494 -1.4132178 16.06942576 -4 14 C-4.66 14 -5.32 14 -6 14 Z " fill="#010000" transform="translate(189,507)"/>
<path d="M0 0 C5.55664942 4.10812115 7.87437167 9.13664935 9.078125 15.8515625 C9.65252026 24.03749717 10.17449956 32.86783178 8.078125 40.8515625 C1.9725779 40.87620763 -4.13294051 40.89439621 -10.23852539 40.90649414 C-12.31730656 40.91153538 -14.39608416 40.91836824 -16.47485352 40.92700195 C-19.45590086 40.93907672 -22.43690149 40.94479274 -25.41796875 40.94921875 C-26.82108559 40.95696068 -26.82108559 40.95696068 -28.25254822 40.96485901 C-29.54377342 40.96497231 -29.54377342 40.96497231 -30.86108398 40.96508789 C-31.62275375 40.9673085 -32.38442352 40.96952911 -33.16917419 40.97181702 C-34.921875 40.8515625 -34.921875 40.8515625 -35.921875 39.8515625 C-36.20556284 36.21391074 -36.15385218 32.56143082 -36.171875 28.9140625 C-36.1925 27.90537109 -36.213125 26.89667969 -36.234375 25.85742188 C-36.28213042 16.58690112 -35.11414935 8.19205034 -28.53515625 1.25390625 C-20.01582683 -6.15151569 -9.2345189 -5.51818813 0 0 Z M-21.921875 10.8515625 C-24.96258079 14.81647354 -25.25874514 17.73484792 -25.109375 22.6640625 C-25.08230469 23.82550781 -25.05523437 24.98695313 -25.02734375 26.18359375 C-24.99253906 27.06402344 -24.95773438 27.94445312 -24.921875 28.8515625 C-17.23703961 29.52609351 -9.63777317 30.0083189 -1.921875 29.8515625 C-1.06693551 20.716748 -1.06693551 20.716748 -3.359375 12.1015625 C-9.20512966 6.96870475 -15.46873306 6.8506145 -21.921875 10.8515625 Z " fill="#000000" transform="translate(156.921875,379.1484375)"/>
<path d="M0 0 C4.82717635 4.65299988 7.23144832 8.89776096 7.43115234 15.63574219 C7.46657946 27.43569838 7.46657946 27.43569838 3.48828125 32.5234375 C-2.93871425 38.89982673 -10.36706886 40.25600858 -19 41.125 C-19.78117187 41.21136719 -20.56234375 41.29773438 -21.3671875 41.38671875 C-25.59865183 41.83551042 -29.73807083 42.09562021 -34 42 C-35.4083576 39.1832848 -35.44400034 36.5446628 -35.75390625 33.41015625 C-35.81907944 32.75099716 -35.88425262 32.09183807 -35.95140076 31.41270447 C-36.08867531 30.01157907 -36.22387638 28.61024922 -36.35717773 27.20874023 C-36.55878632 25.10131927 -36.77012539 22.99503942 -36.98242188 20.88867188 C-37.73180182 13.24662481 -38.21093209 5.68628398 -38 -2 C-27.50361342 -5.49879553 -9.05232198 -7.30459645 0 0 Z M-25 7 C-25.20479042 17.55005257 -25.20479042 17.55005257 -24 28 C-22.18509074 30.27011237 -22.18509074 30.27011237 -19.57421875 30.08203125 C-12.22241395 29.57667774 -12.22241395 29.57667774 -6 26 C-3.55342585 22.21893086 -3.71261688 18.48195255 -4.33984375 14.15625 C-5.50894707 10.33764035 -7.63762913 8.95628851 -11 7 C-15.89114847 5.61919864 -20.03310217 6.08281716 -25 7 Z " fill="#010000" transform="translate(395,126)"/>
<path d="M0 0 C6.10778214 3.21107664 10.66185935 7.38319274 13.0625 13.9375 C14.94899953 20.92933887 14.36327876 26.37945422 11.52734375 33 C8.28393973 38.63756018 3.28228744 42.45903226 -2.875 44.4375 C-10.75289595 45.39577306 -18.03892936 44.62429759 -24.875 40.4375 C-30.74129083 35.6337826 -33.7602555 29.90396574 -34.875 22.4375 C-35.23433288 15.66632113 -33.11998746 10.64984386 -28.875 5.4375 C-21.22516957 -2.47334826 -10.18810442 -4.07874283 0 0 Z M-20.875 15.4375 C-22.61373643 18.91497287 -22.46573264 22.6436837 -21.875 26.4375 C-19.76998129 29.45980702 -19.76998129 29.45980702 -16.875 31.4375 C-15.9778125 32.118125 -15.9778125 32.118125 -15.0625 32.8125 C-11.55086561 33.81582411 -8.30935809 33.514144 -4.875 32.4375 C-1.72974449 29.82760713 0.86161995 27.63521223 1.36328125 23.44921875 C1.49300555 19.38679982 1.49932746 17.06583539 -0.625 13.5 C-3.91394194 10.48513656 -5.74982913 9.60733711 -10.1875 8.9375 C-15.09938844 9.60351877 -17.58393873 11.84894167 -20.875 15.4375 Z " fill="#000000" transform="translate(511.875,139.5625)"/>
<path d="M0 0 C4.08148272 2.60384221 7.18033335 5.45510488 9 10 C9.52218363 13.07263841 9.5581414 15.93022228 9 19 C6.5625 22 6.5625 22 4 24 C3.505 24.495 3.505 24.495 3 25 C1.31391034 25.07205511 -0.37500659 25.08386068 -2.0625 25.0625 C-2.98160156 25.05347656 -3.90070312 25.04445312 -4.84765625 25.03515625 C-5.55792969 25.02355469 -6.26820313 25.01195312 -7 25 C-7.33 26.65 -7.66 28.3 -8 30 C-6.02 29.67 -4.04 29.34 -2 29 C-1.01 31.97 -0.02 34.94 1 38 C-2.72965139 40.03435531 -4.66905042 41 -9 41 C-9.33 43.31 -9.66 45.62 -10 48 C-12.97 48 -15.94 48 -19 48 C-19.165 46.948125 -19.33 45.89625 -19.5 44.8125 C-20.18737266 42.35759764 -20.65432939 41.26321707 -22.703125 39.703125 C-24.09753876 38.92608527 -25.4948044 38.15414641 -26.89453125 37.38671875 C-31.3036148 34.48277689 -34.34740295 29.95779115 -36 25 C-36.49754404 20.1876888 -36.72024124 16.28042886 -34.3125 12 C-31.12387449 9.24226983 -28.99034412 7.90617907 -24.6796875 8.109375 C-22.43994208 8.34809395 -20.22344691 8.64153579 -18 9 C-17.46375 7.906875 -16.9275 6.81375 -16.375 5.6875 C-12.69664953 -0.65315308 -6.93290358 -2.43119162 0 0 Z M-5 10 C-5.66 11.32 -6.32 12.64 -7 14 C-5.93354885 15.29633621 -5.93354885 15.29633621 -3.4375 15.0625 C-2.633125 15.041875 -1.82875 15.02125 -1 15 C-1.26676204 13.01508358 -1.26676204 13.01508358 -2 11 C-2.99 10.67 -3.98 10.34 -5 10 Z M-25 20 C-24.72510809 24.03174806 -24.46508424 25.56894631 -21.4375 28.375 C-20.633125 28.91125 -19.82875 29.4475 -19 30 C-18.67 26.7 -18.34 23.4 -18 20 C-21.58327753 18.99782936 -21.58327753 18.99782936 -25 20 Z " fill="#010000" transform="translate(622,221)"/>
<path d="M0 0 C3.43927579 1.2419607 6.25207819 2.55740284 9 5 C9 5.66 9 6.32 9 7 C9.85271484 7.09474609 9.85271484 7.09474609 10.72265625 7.19140625 C16.53203539 8.1127602 19.64716811 9.90234797 23.6875 14.1484375 C26.88168965 18.65452647 26.70765772 24.70449395 26 30 C23.88729299 35.1371216 20.64853908 38.9417506 16 42 C10.34963816 43.88345395 5.02352485 43.80194272 -0.375 41.1875 C-3.19026347 39.67559925 -4.64411555 38.35588445 -7 36 C-8.98 38.64 -10.96 41.28 -13 44 C-17.21912747 43.5205537 -19.79663178 42.83374881 -23 40 C-22.43421537 35.49061204 -20.551712 32.16283449 -18.1875 28.375 C-17.79949219 27.74126465 -17.41148437 27.1075293 -17.01171875 26.45458984 C-15.68466354 24.29656999 -14.34385337 22.14759782 -13 20 C-12.47744629 19.16275391 -11.95489258 18.32550781 -11.41650391 17.46289062 C-8.75810606 13.21008458 -6.08995999 8.96344496 -3.40625 4.7265625 C-2.96603516 4.03127441 -2.52582031 3.33598633 -2.07226562 2.61962891 C-1 1 -1 1 0 0 Z M0 22 C-0.33660145 25.64407137 -0.33660145 25.64407137 1 29 C3.12545364 31.22556103 3.12545364 31.22556103 6 32 C9.39358971 31.19200245 12.02034318 29.917389 14 27 C14.54624158 23.33237794 14.47898298 21.6741242 12.3125 18.625 C10.11786966 16.86621181 10.11786966 16.86621181 7.5625 16.4375 C3.72905614 17.27898768 2.27727343 18.85200438 0 22 Z " fill="#000000" transform="translate(534,162)"/>
<path d="M0 0 C6.99417186 -0.71735096 12.60506265 2.06366767 17.9375 6.375 C22.18743877 11.78401298 22.16386096 16.1600846 21.38671875 22.73046875 C21 25 21 25 20 28 C25.94 28.99 25.94 28.99 32 30 C32.36999357 38.50985208 32.36999357 38.50985208 30.75541687 40.64875793 C28.46633375 42.41079262 27.45480285 42.23082098 24.62036133 41.8815918 C23.29933159 41.73109627 23.29933159 41.73109627 21.95161438 41.57756042 C20.53117073 41.3902813 20.53117073 41.3902813 19.08203125 41.19921875 C18.10965012 41.08399368 17.13726898 40.96876862 16.13542175 40.85005188 C13.02568677 40.47795017 9.91933472 40.08301999 6.8125 39.6875 C4.70656288 39.4314359 2.60044426 39.1768597 0.49414062 38.92382812 C-4.67280395 38.29981104 -9.83715429 37.65702175 -15 37 C-15.05422947 35.5629191 -15.09289723 34.12524538 -15.125 32.6875 C-15.14820313 31.88699219 -15.17140625 31.08648437 -15.1953125 30.26171875 C-15 28 -15 28 -13 25 C-13.09005215 22.70847292 -13.09005215 22.70847292 -13.5625 20.25 C-14.15200491 15.3110991 -13.64523528 12.35183868 -11 8 C-7.85744384 4.53328332 -4.75632272 2.41967553 0 2 C0 1.34 0 0.68 0 0 Z M-4 18 C-4 20.97926976 -3.16698074 22.65676181 -1.875 25.3125 C0.01221928 27.33327212 0.01221928 27.33327212 3.4375 27.4375 C7.89798634 26.93233828 7.89798634 26.93233828 11 24 C11.57491549 20.04745604 11.61372366 17.92058549 9.375 14.5625 C3.72750841 10.84704501 -0.23387924 12.86438078 -4 18 Z " fill="#010000" transform="translate(657,411)"/>
<path d="M0 0 C6.44794169 5.46673317 11.59985867 11.33693466 13.6875 19.6875 C13.749375 20.595 13.81125 21.5025 13.875 22.4375 C11.47736815 24.83513185 10.54226502 24.78030586 7.25 25.0625 C6.43273437 25.13726563 5.61546875 25.21203125 4.7734375 25.2890625 C4.14695313 25.33804688 3.52046875 25.38703125 2.875 25.4375 C2.70484375 24.84582031 2.5346875 24.25414062 2.359375 23.64453125 C0.89793509 18.87930431 -0.40235201 14.9411687 -4.125 11.4375 C-6.75960948 10.55806596 -6.75960948 10.55806596 -9.125 10.4375 C-7.82858572 14.75888095 -6.10863489 18.62352684 -4.02734375 22.60546875 C-2.03046446 26.65973882 -1.81633788 29.96189927 -2.125 34.4375 C-3.73850741 38.51872463 -6.18919801 40.74070869 -10.09765625 42.7734375 C-15.11426117 44.41664142 -19.66517847 43.16741076 -24.25 40.875 C-30.63405971 35.46242764 -35.70964553 29.96501066 -37.125 21.4375 C-36.125 19.4375 -36.125 19.4375 -33.875 18.25 C-30.6504456 17.29729074 -29.21023379 17.05726383 -26.125 18.4375 C-25.34475331 20.12803449 -24.57475809 21.82835161 -23.94921875 23.58203125 C-22.65581087 26.49373146 -20.46928533 28.34665092 -18.125 30.4375 C-16.64 29.9425 -16.64 29.9425 -15.125 29.4375 C-15.6303125 28.3753125 -16.135625 27.313125 -16.65625 26.21875 C-17.31329165 24.79203098 -17.96949729 23.36492674 -18.625 21.9375 C-18.95886719 21.24140625 -19.29273438 20.5453125 -19.63671875 19.828125 C-21.93101042 14.77131888 -22.66180477 10.9943142 -22.125 5.4375 C-20.60420466 2.08527878 -17.96573442 -0.02536412 -14.875 -2 C-9.53040188 -3.09321325 -4.86798738 -2.43399369 0 0 Z " fill="#010000" transform="translate(224.125,560.5625)"/>
<path d="M0 0 C0.99 0 1.98 0 3 0 C4.56938441 4.80623977 5.78948425 8.91221264 5 14 C3.36671396 16.52909344 1.58075446 18.79107406 -0.37109375 21.08203125 C-2.05369024 22.9089449 -2.05369024 22.9089449 -3 25 C0.63 25 4.26 25 8 25 C10.35333796 29.70667591 10.17102038 31.8693886 10 37 C4.07432839 38.28566216 -1.85219232 39.56730686 -7.77954102 40.84521484 C-9.79638207 41.28063042 -11.81298547 41.71714834 -13.8293457 42.15478516 C-16.72545786 42.78316669 -19.62239789 43.40759596 -22.51953125 44.03125 C-23.42274612 44.22811401 -24.325961 44.42497803 -25.25654602 44.62780762 C-26.09719101 44.80799438 -26.937836 44.98818115 -27.80395508 45.17382812 C-28.54341873 45.33371216 -29.28288239 45.49359619 -30.04475403 45.6583252 C-32 46 -32 46 -35 46 C-36.42258812 42.17679443 -37.24042276 39.08718695 -37 35 C-30.40620337 32.70438191 -23.75052102 30.77910928 -17 29 C-18.15628906 28.25556641 -18.15628906 28.25556641 -19.3359375 27.49609375 C-27.57352322 21.9161353 -27.57352322 21.9161353 -29.6875 17.375 C-29.97998015 14.21621442 -30.15458992 11.16909338 -30 8 C-26.06063556 8.55680063 -23.59980359 9.69498575 -20.375 12 C-17.82203869 13.81234113 -15.99311875 15.00229375 -13 16 C-11.20639298 13.89746067 -9.41505881 11.79305667 -7.625 9.6875 C-7.11710937 9.09259766 -6.60921875 8.49769531 -6.0859375 7.88476562 C-5.59609375 7.30791016 -5.10625 6.73105469 -4.6015625 6.13671875 C-4.15119629 5.60780029 -3.70083008 5.07888184 -3.23681641 4.53393555 C-2.07125727 3.08837533 -1.03003696 1.54505544 0 0 Z " fill="#010000" transform="translate(164,436)"/>
<path d="M0 0 C7.88918667 4.48600811 11.38872431 9.41617294 14.1875 17.8125 C14.28185979 19.81070728 14.31740301 21.81207203 14.3125 23.8125 C14.31636719 25.3903125 14.31636719 25.3903125 14.3203125 27 C14.1875 29.8125 14.1875 29.8125 13.1875 32.8125 C11.5 33.6875 11.5 33.6875 9.1875 33.8125 C3.65737952 31.75225904 3.65737952 31.75225904 2.3125 29.0625 C2.1875 26.8125 2.1875 26.8125 2.375 23.4375 C2.14703397 19.0301568 0.99512251 17.16604911 -1.8125 13.8125 C-4.59370793 11.52793634 -6.05831124 11.82030353 -9.75 11.9375 C-13.75951117 12.61073882 -16.15300443 13.58886901 -18.8125 16.8125 C-20.07630146 21.01208871 -20.30644696 24.50499334 -18.75 28.625 C-16.39792712 31.28056615 -13.844337 32.9933978 -10.8125 34.8125 C-11.27072468 38.28191546 -11.70381683 41.48645049 -12.8125 44.8125 C-16.41269136 45.15537537 -18.52437619 44.95055933 -21.8125 43.375 C-26.42035811 39.43912119 -29.88852335 34.58442995 -31.8125 28.8125 C-32.4270786 20.88342855 -32.91842267 13.32531777 -27.8125 6.8125 C-19.8909326 -1.1090674 -10.62144393 -3.3083186 0 0 Z " fill="#010000" transform="translate(652.8125,274.1875)"/>
<path d="M0 0 C3.55780196 0.60990891 6.6828589 1.5783681 10 3 C10.32258 8.24102471 9.20104439 12.31590489 7.55078125 17.20703125 C7.29628708 17.97303146 7.04179291 18.73903168 6.77958679 19.52824402 C6.24054973 21.13759293 5.69649384 22.74526861 5.14770508 24.35131836 C4.311527 26.81536724 3.50801565 29.28862247 2.70507812 31.76367188 C2.17644725 33.32879111 1.64591383 34.89326932 1.11328125 36.45703125 C0.87660233 37.19862991 0.6399234 37.94022858 0.39607239 38.70429993 C-0.33081055 40.76879883 -0.33081055 40.76879883 -2 44 C-7.85263602 46.75059586 -15.04994305 42.73915476 -20.75 40.8125 C-22.63525391 40.21211914 -22.63525391 40.21211914 -24.55859375 39.59960938 C-26.34716797 39.0030957 -26.34716797 39.0030957 -28.171875 38.39453125 C-29.2659668 38.03206299 -30.36005859 37.66959473 -31.48730469 37.29614258 C-34 36 -34 36 -34.92285156 34.0534668 C-35.0340911 31.09259411 -34.05720531 28.7362961 -33 26 C-25.50559651 26.4996269 -19.04349737 28.43764478 -12 31 C-10.5393715 28.35261084 -10 27.10551666 -10 24 C-11.07121094 23.65066406 -12.14242188 23.30132813 -13.24609375 22.94140625 C-14.64328104 22.48192855 -16.04041365 22.02228454 -17.4375 21.5625 C-18.14455078 21.33240234 -18.85160156 21.10230469 -19.58007812 20.86523438 C-24.88671875 19.11328125 -24.88671875 19.11328125 -26 18 C-25.9140625 16.1875 -25.9140625 16.1875 -25.625 14 C-25.53476562 13.278125 -25.44453125 12.55625 -25.3515625 11.8125 C-25 10 -25 10 -24 9 C-17.16687945 9.37961781 -11.33217694 11.4973933 -5 14 C-4.80664062 13.24074219 -4.61328125 12.48148438 -4.4140625 11.69921875 C-4.15367187 10.70535156 -3.89328125 9.71148438 -3.625 8.6875 C-3.24214844 7.20830078 -3.24214844 7.20830078 -2.8515625 5.69921875 C-2 3 -2 3 0 0 Z " fill="#010000" transform="translate(333,633)"/>
<path d="M0 0 C2.30078125 1.5546875 2.30078125 1.5546875 4 3 C3.67 5.31 3.34 7.62 3 10 C5.64 9.67 8.28 9.34 11 9 C13.25996905 14.47150402 13.04465641 17.97647902 11.11328125 23.56640625 C8.84714032 28.52011081 5.69348428 31.77911599 1.3125 34.9375 C-4.78849085 36.89442159 -10.63151214 37.16271222 -16.4375 34.3125 C-21.44638777 29.7922842 -23.76239837 26.30060978 -24.875 19.625 C-25.14472928 13.96068514 -23.08945353 9.12937918 -19.75 4.625 C-13.84210923 -1.01435028 -7.74869893 -2.05074444 0 0 Z M-12.0625 11.75 C-13.98259911 13.97979252 -14.71132723 15.1132723 -15 18 C-14.67 18.66 -14.34 19.32 -14 20 C-13.34 20 -12.68 20 -12 20 C-11.32845067 18.71086513 -10.66291141 17.41859796 -10 16.125 C-9.62875 15.40570313 -9.2575 14.68640625 -8.875 13.9453125 C-7.86326254 12.05151023 -7.86326254 12.05151023 -8 10 C-10.19664456 9.78434085 -10.19664456 9.78434085 -12.0625 11.75 Z M1 11 C-0.03041513 12.95330868 -1.0490893 14.91281528 -2.0625 16.875 C-2.63097656 17.96554687 -3.19945312 19.05609375 -3.78515625 20.1796875 C-4.18605469 21.11039062 -4.58695313 22.04109375 -5 23 C-4.67 23.66 -4.34 24.32 -4 25 C0.88742966 20.55017378 0.88742966 20.55017378 2.0625 14.375 C2.041875 13.26125 2.02125 12.1475 2 11 C1.67 11 1.34 11 1 11 Z " fill="#010000" transform="translate(183,270)"/>
<path d="M0 0 C0.96164063 -0.00515625 1.92328125 -0.0103125 2.9140625 -0.015625 C5.375 0.25 5.375 0.25 7.375 2.25 C7.5 5.375 7.5 5.375 7.375 8.25 C8.1175 7.734375 8.86 7.21875 9.625 6.6875 C12.375 5.25 12.375 5.25 14.5625 5.25 C16.375 6.25 16.375 6.25 17.625 8.1875 C19.3782162 15.34646616 18.94832066 21.64238907 15.65234375 28.26953125 C13.06802772 32.27640657 9.93477259 34.7300758 5.375 36.25 C-0.87663179 36.81833016 -6.13928535 36.584454 -11.625 33.25 C-16.29452257 28.11958949 -17.94057933 23.48854062 -17.83984375 16.59375 C-17.26729633 10.34777814 -14.27745833 6.22161077 -9.625 2.25 C-6.36550541 0.22953575 -3.80917125 -0.02053462 0 0 Z M5.375 10.25 C4.715 14.87 4.055 19.49 3.375 24.25 C6.49758858 23.574342 6.49758858 23.574342 7.625 21.125 C8.56961991 17.503957 8.21150587 14.87485878 7.375 11.25 C6.715 10.92 6.055 10.59 5.375 10.25 Z M-5.6875 12.3125 C-7.99233428 14.21973083 -7.99233428 14.21973083 -8.0625 17.8125 C-7.918125 18.946875 -7.77375 20.08125 -7.625 21.25 C-6.14 22.24 -6.14 22.24 -4.625 23.25 C-3.965 19.29 -3.305 15.33 -2.625 11.25 C-3.86351906 11.1736739 -3.86351906 11.1736739 -5.6875 12.3125 Z " fill="#010000" transform="translate(152.625,337.75)"/>
<path d="M0 0 C2.93565908 2.4563678 4.60586675 4.19824802 5.4375 8 C5.63678716 11.28823815 5.12530548 13.74342212 3.6875 16.6875 C-0.36887229 20.17786685 -5.07184789 22.00324871 -10 24 C-7.16813301 25.29918375 -7.16813301 25.29918375 -5.09765625 24.2578125 C-4.42605469 23.88398437 -3.75445312 23.51015625 -3.0625 23.125 C-0.40162164 21.65869709 1.96624774 20.42622966 5 20 C7.3125 21.625 7.3125 21.625 9 24 C9.0625 26.5 9.0625 26.5 8 29 C1.75555606 35.24444394 -4.57124918 36.32681995 -13.03515625 36.59375 C-17.01541995 35.79664844 -19.45605089 34.06577321 -22 31 C-23.61988147 28.12620898 -24.7615101 25.16255712 -25.875 22.0625 C-26.18179687 21.27681641 -26.48859375 20.49113281 -26.8046875 19.68164062 C-28.44337154 15.31059727 -29.38035995 11.739285 -29 7 C-23.60545455 4.11454545 -23.60545455 4.11454545 -20.6875 3.5625 C-18.00443199 3.00092762 -16.1799485 2.10892532 -13.75 0.875 C-8.96986471 -1.29199466 -5.00106801 -1.80889694 0 0 Z M-12.125 9.625 C-14.26045922 10.89646246 -14.26045922 10.89646246 -14.75 13.625 C-14.8325 14.40875 -14.915 15.1925 -15 16 C-12.69 15.34 -10.38 14.68 -8 14 C-7.67 12.68 -7.34 11.36 -7 10 C-9.84459313 8.73454424 -9.84459313 8.73454424 -12.125 9.625 Z " fill="#010000" transform="translate(498,629)"/>
<path d="M0 0 C3.93619738 0.56231391 6.79192446 1.61685817 10 4 C10 4.99 10 5.98 10 7 C11.010625 6.9175 12.02125 6.835 13.0625 6.75 C17.68255974 7.04333713 20.45851364 8.05333693 24 11 C27.12913477 15.44135258 27.71699778 19.68815726 27 25 C24.96615682 32.17827003 21.28909134 38.90754071 17 45 C14 46 14 46 11.95703125 45.22265625 C10.89548828 44.64837891 10.89548828 44.64837891 9.8125 44.0625 C9.09707031 43.68222656 8.38164062 43.30195312 7.64453125 42.91015625 C7.10183594 42.60980469 6.55914062 42.30945313 6 42 C6.72923241 36.66941382 9.18883168 32.18752484 11.56054688 27.43945312 C13.24893256 23.96130869 14 21.9437132 14 18 C11.25038489 17.05392193 11.25038489 17.05392193 8 17 C3.92192738 20.40699738 1.60364309 24.12233988 -0.8125 28.8125 C-1.41707031 29.97394531 -2.02164062 31.13539063 -2.64453125 32.33203125 C-3.09183594 33.21246094 -3.53914063 34.09289062 -4 35 C-8.38577176 34.37432896 -11.30744131 33.49790735 -15 31 C-13.01672782 24.27570504 -10.27204461 18.27958889 -6.9375 12.125 C-6.49083984 11.28453125 -6.04417969 10.4440625 -5.58398438 9.578125 C-3.82435566 6.28506798 -2.07307276 3.10960914 0 0 Z " fill="#010000" transform="translate(280,610)"/>
<path d="M0 0 C3.51998112 2.51020876 5.30591849 4.5715374 6.5625 8.8125 C6.5625 12.4425 6.5625 16.0725 6.5625 19.8125 C-0.6975 19.8125 -7.9575 19.8125 -15.4375 19.8125 C-11.14544761 21.95852619 -10.3905988 21.88961174 -5.9375 21.125 C-3.015625 20.7890625 -3.015625 20.7890625 -0.4375 20.8125 C2.3125 23 2.3125 23 3.5625 25.8125 C3.75 27.9375 3.75 27.9375 2.5625 29.8125 C-3.14064141 33.28397738 -8.87253115 33.66141839 -15.4375 32.8125 C-20.78984333 31.15327357 -24.37917165 28.58349223 -27.4375 23.8125 C-29.27758815 18.29223556 -29.59534866 11.83924132 -27.49609375 6.3515625 C-24.76107488 1.73889745 -21.80585349 -1.14508324 -16.58203125 -2.76171875 C-10.82728863 -3.90428149 -5.06229368 -2.91011707 0 0 Z M-16.4375 8.8125 C-16.4375 9.4725 -16.4375 10.1325 -16.4375 10.8125 C-12.8075 10.8125 -9.1775 10.8125 -5.4375 10.8125 C-5.4375 10.1525 -5.4375 9.4925 -5.4375 8.8125 C-9.65226368 6.40406361 -12.21598099 5.998154 -16.4375 8.8125 Z " fill="#010000" transform="translate(434.4375,133.1875)"/>
<path d="M0 0 C4.14992665 4.00583198 5.15031661 7.2998448 5.4375 13 C5.29748136 18.88078277 3.66281757 23.38770602 -0.36328125 27.72265625 C-5.37350373 32.16324104 -10.00767587 33.7310581 -16.59375 33.56640625 C-22.22424115 32.65614351 -25.95452204 29.44772816 -29.375 25.0625 C-31.82770569 20.54952152 -32.27822945 17.29844173 -31.9375 12.1875 C-29.84643878 5.91431634 -26.82841422 1.33715417 -21.5 -2.625 C-14.06759865 -6.06928355 -6.3692872 -5.14850715 0 0 Z M-18.75 9.375 C-21.18530215 11.93105462 -21.18530215 11.93105462 -21 14.75 C-19.32374884 18.59551736 -17.34551736 20.57374884 -13.5 22.25 C-10.69102815 22.43071144 -10.69102815 22.43071144 -8.125 20.0625 C-5.83548309 17.42414066 -5.83548309 17.42414066 -5.25 14.6875 C-6.31994599 10.79678731 -8.67080611 9.38623627 -11.9375 7.1875 C-16.00510656 6.77820626 -16.00510656 6.77820626 -18.75 9.375 Z " fill="#010000" transform="translate(219.9375,226.8125)"/>
<path d="M0 0 C5.0933704 3.13952012 7.75169412 5.99344589 9.3828125 11.90625 C10.80321303 18.1965952 10.52227927 23.15763179 7.3828125 28.90625 C3.74288867 33.00974903 0.28782975 35.60895291 -5.2890625 36.1796875 C-11.13669638 36.37262973 -15.67109009 36.49218881 -20.21484375 32.50390625 C-25.27808618 26.73547685 -26.22989174 21.27439099 -25.93359375 13.67578125 C-25.34049835 8.48436593 -23.44875048 5.46781292 -19.6171875 2.09375 C-13.89865775 -2.07601127 -6.57125879 -2.7461977 0 0 Z M-15.6171875 14.90625 C-15.6841197 18.72138535 -15.42241777 20.91519736 -12.9921875 23.90625 C-9.50136963 25.37606805 -7.22569794 24.89038921 -3.6171875 23.90625 C-1.45052083 22.40625 -1.45052083 22.40625 -0.6171875 19.90625 C-0.61050033 16.28567732 -0.61050033 16.28567732 -1.6171875 12.90625 C-6.912708 9.375903 -11.46563335 9.99986782 -15.6171875 14.90625 Z " fill="#010000" transform="translate(664.6171875,334.09375)"/>
<path d="M0 0 C0.495 4.95 0.495 4.95 1 10 C-4.67582796 11.97993999 -10.11970195 12.41263418 -16.109375 12.75390625 C-19.06644529 12.89180799 -19.06644529 12.89180799 -22 14 C-22 16.31 -22 18.62 -22 21 C-19.00873681 22.72206188 -16.89314287 23.24179923 -13.453125 23.1953125 C-12.60878906 23.18886719 -11.76445313 23.18242187 -10.89453125 23.17578125 C-9.58548828 23.15064453 -9.58548828 23.15064453 -8.25 23.125 C-7.36183594 23.11597656 -6.47367188 23.10695313 -5.55859375 23.09765625 C-3.37211942 23.07414577 -1.18619906 23.04128499 1 23 C1.94314127 26.41610225 2.08065117 29.45134864 2 33 C-1.7656782 35.4123876 -5.66257237 35.44205892 -10 35.625 C-10.75095947 35.66222168 -11.50191895 35.69944336 -12.27563477 35.73779297 C-29.89453011 36.55273495 -29.89453011 36.55273495 -33 35 C-33 31 -33 27 -33 23 C-33.33 22.01 -33.66 21.02 -34 20 C-34.52438572 15.00544092 -34.55003096 11.12043344 -32.3125 6.5625 C-26.41078456 0.02276127 -19.65608568 -0.14452745 -11.375 -0.625 C-10.2303125 -0.70234375 -10.2303125 -0.70234375 -9.0625 -0.78125 C-5.72020314 -0.98061508 -3.20639358 -1.06879786 0 0 Z " fill="#010100" transform="translate(678,373)"/>
<path d="M0 0 C10.3978461 7.55912056 10.3978461 7.55912056 11.4375 13.5 C11 16 11 16 8.75 17.875 C5.69299013 19.12559495 4.98575919 19.16559445 2 18 C0.296875 16.37109375 0.296875 16.37109375 -1.25 14.4375 C-1.77078125 13.79683594 -2.2915625 13.15617188 -2.828125 12.49609375 C-3.21484375 12.00238281 -3.6015625 11.50867188 -4 11 C-4.33 11.33 -4.66 11.66 -5 12 C-4.36771484 12.83144531 -4.36771484 12.83144531 -3.72265625 13.6796875 C-3.17480469 14.40414062 -2.62695312 15.12859375 -2.0625 15.875 C-1.51722656 16.59429687 -0.97195313 17.31359375 -0.41015625 18.0546875 C2.10193481 21.5201206 2.41228275 23.71225944 2 28 C-1.15789474 33.57894737 -1.15789474 33.57894737 -4 35 C-11.16048951 35.74469091 -15.61025218 34.31494973 -21.5625 30.25 C-25.30786878 26.79273651 -28.4763832 23.30391393 -29.625 18.25 C-29 16 -29 16 -26.75 14.125 C-23.70218944 12.87816841 -22.97001916 12.80278298 -20 14 C-18.4375 15.7421875 -18.4375 15.7421875 -17 17.875 C-14.95104028 20.89276133 -13.0174587 22.93200028 -10 25 C-10.56589844 24.28714844 -11.13179687 23.57429688 -11.71484375 22.83984375 C-19.34562212 12.87557604 -19.34562212 12.87557604 -19 7 C-17.70933284 2.80533172 -16.58333308 1.37333317 -12.875 -1 C-8.28302619 -2.59175563 -4.37502487 -1.99460368 0 0 Z " fill="#010000" transform="translate(578,190)"/>
<path d="M0 0 C-0.33 2.97 -0.66 5.94 -1 9 C-4.10295323 9.77573831 -6.94461621 10.04694293 -10.125 10 C-13.91435498 9.79576957 -13.91435498 9.79576957 -17 11 C-15.67935547 11.05607422 -15.67935547 11.05607422 -14.33203125 11.11328125 C-13.17058594 11.17902344 -12.00914062 11.24476563 -10.8125 11.3125 C-9.66394531 11.37050781 -8.51539063 11.42851563 -7.33203125 11.48828125 C-2.79105227 12.18566489 -0.10041936 13.71617742 2.875 17.1875 C4.42368014 21.05920036 4.43915059 24.07215253 3 28 C-2.2354126 33.4733859 -7.21642601 35.16804826 -14.625 35.6875 C-15.75164062 35.77386719 -16.87828125 35.86023438 -18.0390625 35.94921875 C-21 36 -21 36 -24 35 C-23.125 27.25 -23.125 27.25 -22 25 C-18.04 25 -14.08 25 -10 25 C-10 24.34 -10 23.68 -10 23 C-11.44632812 22.96132813 -11.44632812 22.96132813 -12.921875 22.921875 C-14.18515625 22.86515625 -15.4484375 22.8084375 -16.75 22.75 C-18.00296875 22.70359375 -19.2559375 22.6571875 -20.546875 22.609375 C-24.44139695 21.92210642 -25.61754583 21.07637286 -28 18 C-29.5547669 14.89046621 -29.28644437 12.43733239 -29 9 C-26.71398972 3.93102069 -23.72792549 1.69383118 -18.71484375 -0.31640625 C-12.71278466 -1.82771609 -5.88945465 -1.96315155 0 0 Z " fill="#010100" transform="translate(468,639)"/>
<path d="M0 0 C5.27467625 0.30430825 8.37997049 1.08645459 12 5 C15.79724879 11.08056179 16.94015862 16.91355443 16 24 C14.47163447 29.48413515 12.31723769 32.00919785 7.71875 35.0546875 C3.28477747 37.49337239 -1.08100196 37.44794999 -6 37 C-11.49480843 35.16839719 -14.77060185 31.66357186 -18 27 C-20.27831479 22.2362509 -20.79836898 17.20796509 -20 12 C-18.89427301 9.64912827 -17.66531789 8.02960618 -16 6 C-12.63577646 7.18202449 -10.14953734 8.10062406 -8 11 C-7.70703125 13.91796875 -7.70703125 13.91796875 -7.8125 17.1875 C-7.83957031 18.27417969 -7.86664063 19.36085938 -7.89453125 20.48046875 C-7.92933594 21.31191406 -7.96414062 22.14335937 -8 23 C-6.7625 23.185625 -5.525 23.37125 -4.25 23.5625 C-3.55390625 23.66691406 -2.8578125 23.77132813 -2.140625 23.87890625 C0.12638056 24.00714927 1.83849957 23.65721297 4 23 C4.28757584 19.95169613 4.46568013 17.03513873 4 14 C2.7625 13.2884375 2.7625 13.2884375 1.5 12.5625 C0.675 12.046875 -0.15 11.53125 -1 11 C-1.52466821 7.63430926 -1.42342675 4.37531607 -1 1 C-0.67 0.67 -0.34 0.34 0 0 Z " fill="#010000" transform="translate(166,475)"/>
<path d="M0 0 C4.49873994 0.49542074 6.56992233 2.03433631 9.8125 5.125 C10.68003906 5.93710937 11.54757813 6.74921875 12.44140625 7.5859375 C13.28574219 8.38257813 14.13007813 9.17921875 15 10 C16.40960677 11.25795596 17.82562144 12.50879488 19.25 13.75 C19.88292969 14.31203125 20.51585937 14.8740625 21.16796875 15.453125 C22.96109707 17.01580506 22.96109707 17.01580506 24.86328125 18.296875 C26.5625 19.5 26.5625 19.5 29 22 C29 26.48200984 27.68084153 29.90995227 26 34 C13.60857456 35.43520129 1.47524956 36.29087369 -11 36 C-10.69078116 34.54096742 -10.37751201 33.08279278 -10.0625 31.625 C-9.88847656 30.81289063 -9.71445313 30.00078125 -9.53515625 29.1640625 C-9 27 -9 27 -8 25 C-1.74133095 23.60918465 4.61965445 23.90570918 11 24 C9.87050952 20.61152855 8.87716782 19.80305816 6.1875 17.5625 C5.47078125 16.94503906 4.7540625 16.32757813 4.015625 15.69140625 C2.5139676 14.43129452 0.9828516 13.20612808 -0.5625 12 C-2 10 -2 10 -1.8125 6.4375 C-1 3 -1 3 0 0 Z " fill="#010000" transform="translate(151,298)"/>
<path d="M0 0 C1.99609375 0.234375 1.99609375 0.234375 4.4375 0.75 C5.24058594 0.90984375 6.04367187 1.0696875 6.87109375 1.234375 C9 2 9 2 11 5 C11.6117498 7.56766546 12.15063535 10.09543602 12.625 12.6875 C12.7590625 13.38939453 12.893125 14.09128906 13.03125 14.81445312 C13.3602717 16.54181706 13.68095312 18.27076591 14 20 C14.66 20 15.32 20 16 20 C17.79083852 17.69833213 19.47259242 15.39761099 21.125 13 C21.59292969 12.33226562 22.06085938 11.66453125 22.54296875 10.9765625 C23.70126236 9.32185734 24.85139765 7.66144693 26 6 C29.3 6.66 32.6 7.32 36 8 C35.11512852 12.42435741 34.65658702 13.93736566 32.234375 17.3984375 C31.67363281 18.20796875 31.11289062 19.0175 30.53515625 19.8515625 C29.94605469 20.68429688 29.35695313 21.51703125 28.75 22.375 C28.17636719 23.2 27.60273438 24.025 27.01171875 24.875 C23.71214491 29.61015152 20.36287962 34.3096679 17 39 C15.3745692 38.85904936 13.74965949 38.71207913 12.125 38.5625 C11.22007812 38.48128906 10.31515625 38.40007812 9.3828125 38.31640625 C7 38 7 38 5 37 C4.22216797 34.33544922 4.22216797 34.33544922 3.4921875 30.8046875 C3.22792969 29.53109375 2.96367187 28.2575 2.69140625 26.9453125 C2.55750488 26.27661133 2.42360352 25.60791016 2.28564453 24.91894531 C1.88036925 22.90172493 1.45890214 20.88841102 1.03515625 18.875 C-0.20201922 12.81710631 -1.27855211 7.21258557 -1 1 C-0.67 0.67 -0.34 0.34 0 0 Z " fill="#010000" transform="translate(445,132)"/>
<path d="M0 0 C3.709949 1.6130213 5.94831039 3.51212766 8 7 C8.9250085 10.65598596 9.10782948 14.0501534 9.0625 17.8125 C9.05347656 18.78832031 9.04445313 19.76414062 9.03515625 20.76953125 C9.02355469 21.50558594 9.01195312 22.24164062 9 23 C9.78375 23.103125 10.5675 23.20625 11.375 23.3125 C14 24 14 24 16 27 C15.625 30.1875 15.625 30.1875 15 33 C13.35 33 11.7 33 10 33 C10.33 33.66 10.66 34.32 11 35 C11.039992 36.99960012 11.04346799 39.00047242 11 41 C5.555 41.495 5.555 41.495 0 42 C-1.35439668 39.29120665 -1.06501451 36.99066732 -1 34 C-4.465 34.495 -4.465 34.495 -8 35 C-9.83691257 31.21812119 -10.15837626 29.05431692 -9 25 C-6.69 25 -4.38 25 -2 25 C-2.66 20.38 -3.32 15.76 -4 11 C-6.31 11 -8.62 11 -11 11 C-12.85776765 7.86501708 -13.20140476 5.62528568 -13 2 C-8.66702119 -0.46616254 -4.88879645 -0.5684647 0 0 Z " fill="#010100" transform="translate(427,643)"/>
<path d="M0 0 C4.73231721 1.62329486 8.6098459 4.19751741 12.75 6.9375 C14.25381938 7.9220077 15.75772846 8.9063784 17.26171875 9.890625 C18.03563965 10.39916016 18.80956055 10.90769531 19.60693359 11.43164062 C23.58007415 14.03554339 27.57208615 16.61018107 31.5625 19.1875 C33.00138985 20.11835393 34.44020017 21.04933081 35.87890625 21.98046875 C36.90886719 22.64691406 37.93882812 23.31335938 39 24 C38.31620454 27.95008059 37.21156817 30.63457018 35 34 C28.81547557 33.60269968 25.13429864 31.58661106 20.09765625 28.08984375 C19.3750914 27.60294571 18.65252655 27.11604767 17.9080658 26.61439514 C15.61793882 25.06723415 13.34026578 23.502787 11.0625 21.9375 C9.50534845 20.88099445 7.94741314 19.82564308 6.38867188 18.77148438 C2.5832469 16.19425946 -1.2111138 13.60147151 -5 11 C-4.27031096 6.49128985 -2.67844067 3.71525641 0 0 Z " fill="#010000" transform="translate(168,243)"/>
<path d="M0 0 C4.43090471 1.20842856 6.98112756 2.51668565 10 6 C8.60502429 9.85403401 6.80445008 13.02719975 4.515625 16.421875 C3.82726562 17.44796875 3.13890625 18.4740625 2.4296875 19.53125 C1.71039063 20.5934375 0.99109375 21.655625 0.25 22.75 C-0.45382812 23.79671875 -1.15765625 24.8434375 -1.8828125 25.921875 C-3.26785573 27.98141883 -4.65899938 30.03687515 -6.05664062 32.08789062 C-7.30356934 33.9564039 -8.51442814 35.84979457 -9.67773438 37.77148438 C-10.18111328 38.59455078 -10.68449219 39.41761719 -11.203125 40.265625 C-11.62754883 40.99040039 -12.05197266 41.71517578 -12.48925781 42.46191406 C-14 44 -14 44 -16.49902344 44.33886719 C-20.01651101 43.86226891 -21.58369401 42.55438062 -24 40 C-24.7502555 36.40497473 -23.77274904 34.31700286 -21.90454102 31.32714844 C-20.94961271 29.91308015 -19.98191476 28.50757976 -19.00390625 27.109375 C-18.49576889 26.36415588 -17.98763153 25.61893677 -17.46409607 24.85113525 C-15.84097305 22.47651365 -14.20192573 20.1133873 -12.5625 17.75 C-11.46185336 16.14393952 -10.3622316 14.53717617 -9.26367188 12.9296875 C-1.28609096 1.28609096 -1.28609096 1.28609096 0 0 Z " fill="#010000" transform="translate(267,601)"/>
<path d="M0 0 C3.89081843 1.29693948 6.48181674 2.70699112 9 6 C8.6685704 9.9006715 6.39366587 12.41804615 4.0625 15.4375 C3.46731567 16.21432129 3.46731567 16.21432129 2.86010742 17.00683594 C1.57932629 18.67587651 0.28979917 20.33792224 -1 22 C-1.8704522 23.13100236 -2.74024514 24.26251241 -3.609375 25.39453125 C-5.30089656 27.59698348 -6.99517707 29.79726573 -8.69140625 31.99609375 C-11.49264991 35.6410284 -14.25340327 39.31377807 -17 43 C-20.46265264 42.6852134 -22.58585959 42.29733158 -25.4375 40.25 C-27 38 -27 38 -26.77319336 35.60742188 C-25.95211309 32.83851208 -24.98919719 31.27198305 -23.19140625 29.03125 C-22.61358398 28.30099609 -22.03576172 27.57074219 -21.44042969 26.81835938 C-20.82071289 26.05330078 -20.20099609 25.28824219 -19.5625 24.5 C-18.28738131 22.89613466 -17.01264458 21.29196558 -15.73828125 19.6875 C-15.10615723 18.89730469 -14.4740332 18.10710938 -13.82275391 17.29296875 C-11.25437575 14.06202747 -8.7496291 10.7842257 -6.25 7.5 C-2.23404255 2.23404255 -2.23404255 2.23404255 0 0 Z " fill="#010000" transform="translate(254,591)"/>
<path d="M0 0 C0.99 3.3 1.98 6.6 3 10 C-2.49180243 13.55469394 -8.48554625 15.39776954 -14.64526367 17.44384766 C-16.66817477 18.11855441 -18.68457195 18.81059994 -20.70117188 19.50390625 C-27.7769185 21.89334026 -34.49614577 23.78449331 -42 24 C-43.81546807 20.14213034 -44.09380477 17.23294004 -44 13 C-38.37908135 11.1410656 -32.75569563 9.28987081 -27.12988281 7.44580078 C-25.216424 6.8173895 -23.30365647 6.18686925 -21.39160156 5.55419922 C-18.64306812 4.64515674 -15.89213755 3.74372874 -13.140625 2.84375 C-12.28631897 2.55939087 -11.43201294 2.27503174 -10.55181885 1.98205566 C-9.75129089 1.72178589 -8.95076294 1.46151611 -8.12597656 1.19335938 C-7.42426331 0.96241577 -6.72255005 0.73147217 -5.99957275 0.49353027 C-4 0 -4 0 0 0 Z " fill="#010000" transform="translate(676,310)"/>
<path d="M0 0 C2.03435531 3.72965139 3 5.66905042 3 10 C1.34467377 11.01866229 -0.32260138 12.01810813 -2 13 C-2.91282017 15.25715532 -3.1437383 16.50953815 -2.45507812 18.859375 C-2.15021484 19.48328125 -1.84535156 20.1071875 -1.53125 20.75 C-1.04591797 21.78640625 -1.04591797 21.78640625 -0.55078125 22.84375 C-0.20402344 23.5553125 0.14273437 24.266875 0.5 25 C1.18783878 26.41147586 1.86536689 27.82803447 2.53125 29.25 C2.83611328 29.87390625 3.14097656 30.4978125 3.45507812 31.140625 C4.14647414 33.49979708 3.92681536 34.73602356 3 37 C-0.67884625 39.28905989 -2.61551956 40 -7 40 C-8.79498186 36.43916105 -10.58539784 32.87604531 -12.375 29.3125 C-13.13683594 27.80139648 -13.13683594 27.80139648 -13.9140625 26.25976562 C-14.64882813 24.79506836 -14.64882813 24.79506836 -15.3984375 23.30078125 C-15.84880371 22.40528564 -16.29916992 21.50979004 -16.76318359 20.5871582 C-18.86028523 16.20046534 -20.28101464 12.91775626 -20 8 C-14.57476636 5.09813084 -14.57476636 5.09813084 -11.4375 4.5625 C-8.79059332 4.13814076 -8.79059332 4.13814076 -6.4375 1.9375 C-4 0 -4 0 0 0 Z " fill="#010000" transform="translate(297,153)"/>
<path d="M0 0 C1.66918945 2.42089844 1.66918945 2.42089844 3.11328125 5.609375 C3.9012207 7.33027344 3.9012207 7.33027344 4.70507812 9.0859375 C4.96877197 9.68760742 5.23246582 10.28927734 5.50415039 10.90917969 C6.30730476 12.73816909 7.14284954 14.55282222 7.97851562 16.3671875 C12.35527452 26.08848553 12.35527452 26.08848553 12 31 C8.06312043 33.19732813 5.48703763 34.18345639 1 34 C0.46890625 32.7934375 -0.0621875 31.586875 -0.609375 30.34375 C-1.32281533 28.72912189 -2.03636272 27.11454108 -2.75 25.5 C-3.27207031 24.31277344 -3.27207031 24.31277344 -3.8046875 23.1015625 C-5.81121681 18.56829257 -7.9089745 14.12894605 -10.25 9.7578125 C-11.36390307 7.14710219 -11.27844587 4.78445866 -11 2 C-6.91326803 -0.37600696 -4.54329087 -1.71761276 0 0 Z " fill="#010000" transform="translate(513,621)"/>
<path d="M0 0 C2.05853942 2.41654628 2.03336366 4.26214301 2.4375 7.4375 C2 11 2 11 -0.0625 13.9375 C-3.74062512 16.52001338 -5.59231863 16.72125695 -10 16 C-13.28573474 13.83833241 -13.90007665 12.36638562 -14.9375 8.5625 C-15.0080987 4.53837419 -14.60073089 3.03418604 -12 0 C-7.68563539 -2.75639961 -4.59091963 -1.90566475 0 0 Z " fill="#010100" transform="translate(375,652)"/>
<path d="M0 0 C3.12781023 2.25897405 3.91365646 3.70319408 5 7.4375 C5 11 5 11 3.1875 13.875 C0.64465703 16.34519031 -0.31435615 16.90858082 -3.8125 17.375 C-7 17 -7 17 -9.875 15 C-12.81148802 10.85436985 -12.7152453 9.00671711 -12 4 C-8.65400733 -0.49978324 -5.34448918 -1.69459413 0 0 Z " fill="#010000" transform="translate(333,150)"/>
<path d="M0 0 C2 2 2 2 2.3125 4.875 C2 8 2 8 1 10.375 C-1.70423314 12.57218942 -3.70634654 12.57147257 -7.12109375 12.3828125 C-9 12 -9 12 -11.0625 10.375 C-12.34452118 7.12721302 -12.05543562 5.30703161 -11 2 C-7.73370622 -1.8944272 -4.65292258 -1.12014803 0 0 Z " fill="#010100" transform="translate(529,655)"/>
</svg>
