<svg xmlns="http://www.w3.org/2000/svg" width="810" height="810"><path fill="#010000" d="M274.938 172.625c3.37 2.614 4.979 4.708 7.062 8.375-1.293 2.884-2.66 4.872-5 7l7 1c.75 1.563.75 1.563 1 4-2.669 6.55-6.883 9.643-13 13-5.612 1.87-11.173 1.756-16.625-.5L253 204l1 3c.538 6.348-.354 10.708-4 16-2.544 2.358-5.116 4.077-8 6l1.348 1.355c4.601 4.916 4.601 4.916 4.84 8.333-1.595 3.105-3.186 4.538-6.188 6.312-3.339-.158-4.717-.744-7.21-3.004l-2.165-2.559-2.367-2.753L228 234q-1.745-2.005-3.5-4l-1.668-1.926a247 247 0 0 0-4.195-4.617l-2.45-2.644-2.269-2.418C211.966 215.958 210.845 214 210 211c1.25-2.312 1.25-2.312 3-4h2v-2l1.75-.125c2.552-.744 2.552-.744 4.125-3.687 2.904-4.357 6.187-6.542 11.125-8.188 6.505-.551 10.421.676 16 4l-1-2c-.8-5.924-.655-10.786 2.563-15.937 6.225-8.079 15.742-11.368 25.375-6.438M260.25 182.75 258 185v3c3.937-1.312 6.227-2.92 9-6-3.117-1.385-3.786-1.136-6.75.75M274 188q-2.507 1.426-5 2.875l-2.812 1.617L264 194v2c5.36-.293 5.36-.293 9.438-3.562.515-.805 1.03-1.61 1.562-2.438zm-44.875 18.125c-1.688 2.813-1.577 4.65-1.125 7.875 1.476 2.97 1.476 2.97 4 5 3 .75 3 .75 6 0 2.752-1.955 3.802-3.14 4.563-6.437-.831-3.785-2.517-5.246-5.563-7.563-3.262-.522-5.027-.584-7.875 1.125M637 467c5.177.48 9.928 1.78 14.832 3.434l2.175.72q2.257.752 4.51 1.511c2.303.775 4.61 1.537 6.919 2.298l4.396 1.47 2.09.689c2.915.991 4.87 1.67 7.078 3.878-.427 3.892-1.778 7.493-3.066 11.176l-1.221 3.506-1.275 3.63-1.288 3.69q-1.57 4.5-3.15 8.998l-9-1c-1.496-4.712-.33-7.612 1.438-12.125 1.962-4.809 1.962-4.809 2.562-9.875l-5-2-.297 1.652c-1.171 5.907-3.115 10.913-5.703 16.348l-9-3c1.353-6.45 3.03-12.711 5-19l-5-1-.627 1.728q-1.402 3.856-2.81 7.71l-.987 2.72-.947 2.588-.873 2.396C637 501 637 501 636 502c-1.666.04-3.334.043-5 0 1.67 1.67 3.806 2.571 5.875 3.688l2.984 1.617L643 509q3.064 1.654 6.125 3.313l2.758 1.488C654 515 654 515 655 516c.468 4.208-.42 6.656-3 10h-3l-.008 1.723c-.272 5.428-1.278 8.958-5.133 12.886-3.42 2.559-6.6 3.46-10.859 3.391-8.16-1.877-15.742-6.95-23-11 .626-4.386 1.502-7.307 4-11 5.168.695 9.326 3.103 13.828 5.56 3.552 1.865 6.146 2.86 10.172 2.44.727-4.08.727-4.08 0-8-3.009-2.623-6.432-4.25-10-6a297 297 0 0 1-4.125-2.375L621 512c.509-4.374 1.43-7.401 4-11l2-1c.206-2.092.409-4.184.598-6.277.755-5.114 2.647-9.88 4.402-14.723l1.117-3.176c2.724-7.665 2.724-7.665 3.883-8.824M614 540c2.74 1.66 5.163 3.543 7.68 5.523 3.314 2.11 5.601 1.279 9.32.477 2.938 1.625 2.938 1.625 5 4q.063 2.5 0 5c1.896 2.314 1.896 2.314 4 4-1.25 3.46-2.675 6.147-5 9-5.75-.875-5.75-.875-8-2l-3 4c-5.75-.75-5.75-.75-8-3 .375-2.937.375-2.937 1-6v-3c-1.39-1.466-1.39-1.466-3.25-2.687l-1.828-1.325c-2.155-1.293-2.155-1.293-5.922-.988l-2 4h-6l1.66 1.477a1047 1047 0 0 1 16.215 14.836l1.946 1.812a918 918 0 0 1 3.604 3.387 526 526 0 0 0 4.02 3.75C627 584 627 584 627 586.5c-1.217 3.042-2.338 4.578-5 6.5-5.191.288-9.184-3.903-13-7l-.395 1.84c-1.186 4.234-3.798 6.64-7.418 8.972-3.768 1.404-6.19 1.679-10.187 1.188-5.292-2.674-9.613-5.908-14-9.875l-1.809-1.527C573.5 585.07 573.5 585.07 571 582c.018-3.76.565-5.394 2.75-8.437C576 572 576 572 578.3 572.09c4.634 1.562 7.488 5.26 10.884 8.66 3.076 2.457 4.94 2.976 8.816 3.25 2.191-2.711 2.191-2.711 2.063-5.25-1.761-4.558-5.673-8.555-10.063-10.75v-2l-3-1c-.375-2.125-.375-2.125 0-5a30.4 30.4 0 0 1 6-6h2l.125-2.562c1.154-4.535 3.542-7.23 6.875-10.438 3.81-1.905 7.87-1.745 12-1M573 588c2.8 1.985 4.85 4.339 7 7l2.246 2.73c5.796 7.444 5.796 7.444 5.617 10.961-1.217 3.256-2.955 4.483-5.863 6.309-4 0-4 0-5.385-1.27l-1.236-1.757-1.397-1.9-2.828-4.009c-2.781-3.867-2.781-3.867-6.888-6.095-2.356-.198-2.356-.198-4.078 1.468L559 603c1.69 6.254 5.156 10.254 9.2 15.195 1.8 2.805 1.8 2.805 1.71 5.028-1.444 2.82-3.235 4.135-5.91 5.777-3.732-.056-4.873-.872-7.535-3.547a172 172 0 0 1-2.528-3.203l-1.275-1.594A540 540 0 0 1 549 616l-2.309-2.766C545 611 545 611 545 609h-2v6l-3.625 1.313c-3.587 1.34-6.981 2.905-10.375 4.687l1 1 1.688-.656c5.341-1.95 9.628-3.102 15.312-2.344 3.61 2.535 4.769 4.205 6 8.438 0 4.202-.658 6.087-3 9.562-4.919 4.919-10.977 8.581-18 9.313-2-.313-2-.313-3-1.313a75 75 0 0 1-.062-4.562l.027-2.504L529 636l2.371-.805 3.067-1.07 3.058-1.055c2.644-.81 2.644-.81 3.504-3.07l-2.598.91c-12.076 4.016-12.076 4.016-17.402 2.09-3.388-2.867-3.939-4.518-4.5-8.937.268-4.337 1.572-6.777 4.5-10.063 6.044-5.128 12.32-7.364 20-9l.355-1.86c.972-3.224 2.883-4.341 5.645-6.14h4l.688-2.25c2.032-4.259 4.914-6.051 9.062-8.125 4.532-.872 7.995-.417 12.25 1.375M189 507c1.746 2.417 2.892 4.712 3.938 7.5 1.253 2.949 3.045 5.027 5.062 7.5.96 2.882 1.106 4.699 1.063 7.688l-.028 2.449L199 534l2.375.438C204 535 204 535 206 536v2h2c2.658 4.54 3.574 7.74 3 13-2.018 4.089-4.491 6.52-8.062 9.313l-2.66 2.113C198 564 198 564 196 564l2 5-6 5-2.25-1.125c-2.672-1.189-2.672-1.189-4.812.063-.64.35-1.28.7-1.938 1.062-3.18-.1-4.03-1.03-6.312-3.312C175 568 175 568 175.063 565.938c1.073-2.22 2.375-4.036 3.937-5.938l-2-3c.158-3.158.62-4.58 2.75-6.937C182 549 182 549 184.688 549.688 187 551 187 551 188 553c3.89-.576 6.01-2.561 9-5h2c-.348-1.975-.348-1.975-1-4l-2-1v-4l-2.062 1.063c-3.778 1.205-6.104.896-9.938-.063-4.855-2.89-7.268-7.21-10-12 .324 5.352 3.497 8.283 7 12-1.074 2.915-1.778 4.778-4 7-3.157.072-5.185-.303-7.621-2.387-5.471-6.071-7.657-11.98-7.973-20.086 1.071-4.56 3.91-7.343 7.628-9.956 2.307-1.414 4.648-2.723 7.029-4.009l2.431-1.388 2.354-1.295 2.125-1.17c2.469-.864 3.626-.697 6.027.291m-6 14c0 4.268.376 4.939 3 8l3-1c-.56-3.243-1.413-4.93-4-7z"/><path d="M156.922 379.148c5.557 4.109 7.874 9.137 9.078 15.852.574 8.186 1.096 17.016-1 25q-9.159.037-18.317.055-3.117.008-6.236.02c-2.981.013-5.962.018-8.943.023l-2.835.015h-2.608l-2.308.007C122 420 122 420 121 419c-.284-3.638-.232-7.29-.25-10.937l-.062-3.057c-.048-9.27 1.12-17.666 7.699-24.604 8.519-7.405 19.3-6.772 28.535-1.254M135 390c-3.04 3.965-3.337 6.883-3.187 11.813l.082 3.519L132 408c7.685.675 15.284 1.157 23 1 .855-9.135.855-9.135-1.437-17.75-5.846-5.133-12.11-5.25-18.563-1.25"/><path fill="#010000" d="M395 126c4.827 4.653 7.231 8.898 7.431 15.636.036 11.8.036 11.8-3.943 16.887-6.427 6.377-13.855 7.733-22.488 8.602l-2.367.262c-4.232.449-8.371.709-12.633.613-1.408-2.817-1.444-5.455-1.754-8.59l-.197-1.997q-.207-2.102-.406-4.204c-.202-2.108-.413-4.214-.625-6.32-.75-7.642-1.229-15.203-1.018-22.889 10.496-3.499 28.948-5.305 38 2m-25 7c-.205 10.55-.205 10.55 1 21 1.815 2.27 1.815 2.27 4.426 2.082 7.352-.505 7.352-.505 13.574-4.082 2.447-3.781 2.287-7.518 1.66-11.844-1.169-3.818-3.298-5.2-6.66-7.156-4.891-1.38-9.033-.917-14 0"/><path d="M511.875 139.563c6.108 3.21 10.662 7.383 13.063 13.937 1.886 6.992 1.3 12.442-1.536 19.063C520.16 178.2 515.157 182.022 509 184c-7.878.958-15.164.187-22-4-5.866-4.804-8.885-10.534-10-18-.36-6.771 1.755-11.788 6-17 7.65-7.91 18.687-9.516 28.875-5.437M491 155c-1.739 3.477-1.59 7.206-1 11 2.105 3.022 2.105 3.022 5 5l1.813 1.375c3.511 1.003 6.753.702 10.187-.375 3.145-2.61 5.737-4.802 6.238-8.988.13-4.063.136-6.384-1.988-9.95-3.289-3.014-5.125-3.892-9.562-4.562-4.912.666-7.397 2.911-10.688 6.5"/><path fill="#010000" d="M622 221c4.081 2.604 7.18 5.455 9 10 .522 3.073.558 5.93 0 9-2.437 3-2.437 3-5 5l-1 1a92 92 0 0 1-5.062.063l-2.786-.028L615 246l-1 5 6-1 3 9c-3.73 2.034-5.67 3-10 3l-1 7h-9l-.5-3.187c-.687-2.455-1.154-3.55-3.203-5.11a696 696 0 0 0-4.192-2.316c-4.409-2.904-7.452-7.43-9.105-12.387-.498-4.812-.72-8.72 1.688-13 3.188-2.758 5.322-4.094 9.632-3.89 2.24.238 4.457.532 6.68.89l1.625-3.312c3.678-6.341 9.442-8.12 16.375-5.688m-5 10-2 4c1.066 1.296 1.066 1.296 3.563 1.063L621 236c-.267-1.985-.267-1.985-1-4zm-20 10c.275 4.032.535 5.569 3.563 8.375L603 251l1-10c-3.583-1.002-3.583-1.002-7 0"/><path d="M534 162c3.44 1.242 6.252 2.557 9 5v2l1.723.191c5.809.922 8.924 2.711 12.965 6.957 3.194 4.507 3.02 10.556 2.312 15.852-2.113 5.137-5.351 8.942-10 12-5.65 1.883-10.976 1.802-16.375-.812-2.815-1.512-4.27-2.832-6.625-5.188l-6 8c-4.22-.48-6.797-1.166-10-4 .566-4.51 2.448-7.837 4.813-11.625l1.175-1.92A974 974 0 0 1 521 182l1.583-2.537q3.987-6.38 8.01-12.736l1.335-2.107C533 163 533 163 534 162m0 22c-.337 3.644-.337 3.644 1 7 2.125 2.226 2.125 2.226 5 3 3.394-.808 6.02-2.083 8-5 .546-3.668.479-5.326-1.687-8.375-2.195-1.759-2.195-1.759-4.75-2.187-3.834.841-5.286 2.414-7.563 5.562"/><path fill="#010000" d="M657 411c6.994-.717 12.605 2.064 17.938 6.375 4.25 5.409 4.226 9.785 3.449 16.355C678 436 678 436 677 439l12 2c.37 8.51.37 8.51-1.245 10.649-2.289 1.762-3.3 1.582-6.135 1.233l-2.668-.304-2.87-.379-2.947-.349c-3.11-.372-6.216-.767-9.322-1.163q-3.16-.384-6.319-.763A2443 2443 0 0 1 642 448a280 280 0 0 1-.125-4.312l-.07-2.426C642 439 642 439 644 436c-.09-2.292-.09-2.292-.562-4.75-.59-4.939-.083-7.898 2.562-12.25 3.143-3.467 6.244-5.58 11-6zm-4 18c0 2.98.833 4.657 2.125 7.313 1.887 2.02 1.887 2.02 5.313 2.125 4.46-.506 4.46-.506 7.562-3.438.575-3.953.614-6.08-1.625-9.437-5.647-3.716-9.609-1.699-13.375 3.437M224.125 560.563c6.448 5.466 11.6 11.336 13.688 19.687L238 583c-2.398 2.398-3.333 2.343-6.625 2.625l-2.477.227L227 586l-.516-1.793c-1.461-4.765-2.761-8.703-6.484-12.207-2.635-.88-2.635-.88-5-1 1.296 4.321 3.016 8.186 5.098 12.168 1.997 4.054 2.21 7.356 1.902 11.832-1.614 4.081-4.064 6.303-7.973 8.336-5.016 1.643-9.567.394-14.152-1.899-6.384-5.412-11.46-10.91-12.875-19.437 1-2 1-2 3.25-3.187 3.225-.953 4.665-1.193 7.75.187.78 1.69 1.55 3.39 2.176 5.145 1.293 2.911 3.48 4.764 5.824 6.855l3-1-1.531-3.219q-.985-2.14-1.969-4.281l-1.012-2.11c-2.294-5.056-3.025-8.833-2.488-14.39 1.52-3.352 4.16-5.463 7.25-7.437 5.345-1.094 10.007-.434 14.875 2M164 436h3c1.57 4.806 2.79 8.912 2 14-1.633 2.53-3.42 4.791-5.371 7.082-1.683 1.827-1.683 1.827-2.629 3.918h11c2.353 4.707 2.171 6.87 2 12a13903 13903 0 0 1-17.78 3.845q-3.024.654-6.05 1.31-4.343.942-8.69 1.876l-2.737.597-2.547.546-2.24.484C132 482 132 482 129 482c-1.423-3.823-2.24-6.913-2-11 6.594-2.296 13.25-4.22 20-6l-2.336-1.504c-8.238-5.58-8.238-5.58-10.351-10.121-.293-3.159-.468-6.206-.313-9.375 3.94.557 6.4 1.695 9.625 4 2.553 1.812 4.382 3.002 7.375 4q2.69-3.154 5.375-6.312l1.54-1.803 1.483-1.748 1.365-1.603c1.166-1.446 2.207-2.989 3.237-4.534M652.813 274.188C660.702 278.674 664.2 283.604 667 292c.094 1.998.13 4 .125 6l.008 3.188C667 304 667 304 666 307c-1.687.875-1.687.875-4 1-5.53-2.06-5.53-2.06-6.875-4.75-.125-2.25-.125-2.25.063-5.625-.228-4.407-1.38-6.271-4.188-9.625-2.781-2.285-4.246-1.992-7.937-1.875-4.01.673-6.404 1.651-9.063 4.875-1.264 4.2-1.494 7.692.063 11.813 2.352 2.655 4.905 4.368 7.937 6.187-.458 3.47-.891 6.674-2 10-3.6.343-5.712.138-9-1.437-4.608-3.936-8.076-8.791-10-14.563-.615-7.93-1.106-15.487 4-22 7.922-7.922 17.191-10.12 27.813-6.812M333 633c3.558.61 6.683 1.578 10 3 .323 5.241-.799 9.316-2.45 14.207l-.77 2.321a839 839 0 0 1-1.632 4.823 580 580 0 0 0-2.443 7.413q-.794 2.348-1.592 4.693l-.717 2.247c-.727 2.065-.727 2.065-2.396 5.296-5.853 2.75-13.05-1.26-18.75-3.187l-3.809-1.213-3.613-1.205-3.315-1.099C299 669 299 669 298.077 667.053c-.111-2.96.866-5.317 1.923-8.053 7.494.5 13.957 2.438 21 5 1.46-2.647 2-3.894 2-7l-3.246-1.059-4.192-1.379-2.142-.697c-5.307-1.752-5.307-1.752-6.42-2.865.086-1.812.086-1.812.375-4l.273-2.187C308 643 308 643 309 642c6.833.38 12.668 2.497 19 5l.586-2.3.789-3.013.773-2.988C331 636 331 636 333 633M183 270c2.3 1.555 2.3 1.555 4 3l-1 7 8-1c2.26 5.472 2.045 8.976.113 14.566-2.266 4.954-5.42 8.213-9.8 11.372-6.101 1.956-11.945 2.225-17.75-.625-5.01-4.52-7.325-8.012-8.438-14.688-.27-5.664 1.786-10.496 5.125-15 5.908-5.64 12.001-6.676 19.75-4.625m-12.062 11.75c-1.92 2.23-2.65 3.363-2.938 6.25l1 2h2q1.007-1.935 2-3.875l1.125-2.18c1.012-1.893 1.012-1.893.875-3.945-2.197-.216-2.197-.216-4.062 1.75M184 281a763 763 0 0 0-3.062 5.875l-1.723 3.305L178 293l1 2c4.887-4.45 4.887-4.45 6.063-10.625L185 281zM152.625 337.75l2.914-.016C158 338 158 338 160 340c.125 3.125.125 3.125 0 6l2.25-1.562C165 343 165 343 167.188 343c1.812 1 1.812 1 3.062 2.938 1.753 7.158 1.323 13.454-1.973 20.082-2.584 4.006-5.717 6.46-10.277 7.98-6.252.568-11.514.334-17-3-4.67-5.13-6.316-9.761-6.215-16.656.573-6.246 3.563-10.372 8.215-14.344 3.26-2.02 5.816-2.27 9.625-2.25M158 348l-2 14c3.123-.676 3.123-.676 4.25-3.125.945-3.621.587-6.25-.25-9.875zm-11.062 2.063c-2.305 1.907-2.305 1.907-2.375 5.5L145 359l3 2 2-12c-1.239-.076-1.239-.076-3.062 1.063M498 629c2.936 2.456 4.606 4.198 5.438 8 .199 3.288-.313 5.743-1.75 8.688-4.057 3.49-8.76 5.315-13.688 7.312 2.832 1.3 2.832 1.3 4.902.258l2.036-1.133c2.66-1.466 5.028-2.699 8.062-3.125 2.313 1.625 2.313 1.625 4 4 .063 2.5.063 2.5-1 5-6.244 6.244-12.571 7.327-21.035 7.594-3.98-.797-6.421-2.528-8.965-5.594-1.62-2.874-2.762-5.837-3.875-8.937l-.93-2.381c-1.638-4.371-2.575-7.943-2.195-12.682 5.395-2.885 5.395-2.885 8.313-3.437 2.683-.562 4.507-1.454 6.937-2.688 4.78-2.167 8.749-2.684 13.75-.875m-12.125 9.625c-2.135 1.271-2.135 1.271-2.625 4L483 645l7-2 1-4c-2.845-1.265-2.845-1.265-5.125-.375M280 610c3.936.562 6.792 1.617 10 4v3l3.063-.25c4.62.293 7.396 1.303 10.937 4.25 3.13 4.441 3.717 8.688 3 14-2.034 7.178-5.71 13.908-10 20-3 1-3 1-5.043.223l-2.144-1.16-2.168-1.153L286 652c.73-5.33 3.189-9.812 5.56-14.56 1.689-3.479 2.44-5.496 2.44-9.44-2.75-.946-2.75-.946-6-1-4.078 3.407-6.396 7.122-8.812 11.813l-1.833 3.519L276 645c-4.386-.626-7.307-1.502-11-4 1.983-6.724 4.728-12.72 8.063-18.875l1.353-2.547c1.76-3.293 3.51-6.468 5.584-9.578M434.438 133.188c3.52 2.51 5.305 4.571 6.562 8.812v11h-22c4.292 2.146 5.047 2.077 9.5 1.313 2.922-.336 2.922-.336 5.5-.313 2.75 2.188 2.75 2.188 4 5 .188 2.125.188 2.125-1 4-5.703 3.471-11.435 3.849-18 3-5.352-1.66-8.942-4.229-12-9-1.84-5.52-2.158-11.973-.059-17.46 2.735-4.614 5.69-7.498 10.914-9.114 5.755-1.143 11.52-.149 16.582 2.762M418 142v2h11v-2c-4.215-2.408-6.778-2.814-11 0M219.938 226.813c4.15 4.005 5.15 7.3 5.437 13-.14 5.88-1.775 10.387-5.8 14.722-5.011 4.44-9.645 6.009-16.231 5.844-5.63-.91-9.361-4.119-12.781-8.504-2.453-4.513-2.904-7.764-2.563-12.875 2.091-6.273 5.11-10.85 10.438-14.812 7.432-3.445 15.13-2.524 21.5 2.625m-18.75 9.375c-2.436 2.556-2.436 2.556-2.25 5.375 1.676 3.845 3.654 5.823 7.5 7.5 2.808.18 2.808.18 5.375-2.188 2.289-2.638 2.289-2.638 2.875-5.375-1.07-3.89-3.421-5.301-6.688-7.5-4.068-.41-4.068-.41-6.812 2.188M664.617 334.094c5.094 3.14 7.752 5.993 9.383 11.906 1.42 6.29 1.14 11.251-2 17-3.64 4.103-7.095 6.703-12.672 7.273-5.848.193-10.382.313-14.926-3.675-5.063-5.769-6.015-11.23-5.718-18.828.593-5.192 2.484-8.208 6.316-11.582 5.719-4.17 13.046-4.84 19.617-2.094M649 349c-.067 3.815.195 6.009 2.625 9 3.49 1.47 5.766.984 9.375 0 2.167-1.5 2.167-1.5 3-4 .007-3.62.007-3.62-1-7-5.296-3.53-9.848-2.906-14 2"/><path fill="#010100" d="m678 373 1 10c-5.676 1.98-11.12 2.413-17.11 2.754-2.956.138-2.956.138-5.89 1.246v7c2.991 1.722 5.107 2.242 8.547 2.195l2.558-.02 2.645-.05 2.691-.027q3.28-.036 6.559-.098c.943 3.416 1.08 6.451 1 10-3.766 2.412-7.663 2.442-12 2.625l-2.276.113c-17.619.815-17.619.815-20.724-.738v-12l-1-3c-.524-4.995-.55-8.88 1.688-13.437 5.901-6.54 12.656-6.708 20.937-7.188l2.313-.156c3.342-.2 5.856-.288 9.062.781"/><path fill="#010000" d="M578 190c10.398 7.56 10.398 7.56 11.438 13.5-.438 2.5-.438 2.5-2.688 4.375-3.057 1.25-3.764 1.29-6.75.125-1.703-1.629-1.703-1.629-3.25-3.562l-1.578-1.942L574 201l-1 1 1.277 1.68 1.66 2.195 1.653 2.18c2.512 3.465 2.822 5.657 2.41 9.945-3.158 5.579-3.158 5.579-6 7-7.16.745-11.61-.685-17.562-4.75-3.746-3.457-6.914-6.946-8.063-12 .625-2.25.625-2.25 2.875-4.125 3.048-1.247 3.78-1.322 6.75-.125 1.563 1.742 1.563 1.742 3 3.875 2.049 3.018 3.983 5.057 7 7.125l-1.715-2.16c-7.63-9.964-7.63-9.964-7.285-15.84 1.29-4.195 2.417-5.627 6.125-8 4.592-1.592 8.5-.995 12.875 1"/><path fill="#010100" d="m468 639-1 9c-3.103.776-5.945 1.047-9.125 1-3.79-.204-3.79-.204-6.875 1l2.668.113 3.52.2 3.48.175c4.54.698 7.232 2.228 10.207 5.7 1.549 3.871 1.564 6.884.125 10.812-5.235 5.473-10.216 7.168-17.625 7.688l-3.414.261C447 675 447 675 444 674c.875-7.75.875-7.75 2-10h12v-2l-2.922-.078-3.828-.172-3.797-.14c-3.894-.688-5.07-1.534-7.453-4.61-1.555-3.11-1.286-5.563-1-9 2.286-5.069 5.272-7.306 10.285-9.316 6.002-1.512 12.826-1.647 18.715.316"/><path fill="#010000" d="M166 475c5.275.304 8.38 1.086 12 5 3.797 6.08 4.94 11.914 4 19-1.528 5.484-3.683 8.01-8.281 11.055-4.434 2.438-8.8 2.393-13.719 1.945-5.495-1.832-8.77-5.336-12-10-2.278-4.764-2.798-9.792-2-15 1.106-2.35 2.335-3.97 4-6 3.364 1.182 5.85 2.1 8 5 .293 2.918.293 2.918.188 6.188l-.083 3.292L158 498l3.75.563 2.11.316c2.266.128 3.978-.222 6.14-.879.288-3.048.466-5.965 0-9l-2.5-1.437L165 486c-.525-3.366-.423-6.625 0-10zM151 298c4.499.495 6.57 2.034 9.813 5.125l2.628 2.46L166 308a480 480 0 0 0 4.25 3.75l1.918 1.703c1.793 1.563 1.793 1.563 3.695 2.844 1.7 1.203 1.7 1.203 4.137 3.703 0 4.482-1.32 7.91-3 12-12.391 1.435-24.525 2.29-37 2q.465-2.188.938-4.375l.527-2.46C142 325 142 325 143 323c6.259-1.39 12.62-1.094 19-1-1.13-3.388-2.123-4.197-4.812-6.437l-2.172-1.872a166 166 0 0 0-4.578-3.691c-1.438-2-1.438-2-1.25-5.562C150 301 150 301 151 298M445 132c1.996.234 1.996.234 4.438.75l2.433.484C454 134 454 134 456 137a148 148 0 0 1 1.625 7.688l.406 2.126c.33 1.728.65 3.457.969 5.186h2a149 149 0 0 0 5.125-7l1.418-2.023q1.735-2.484 3.457-4.977l10 2c-.885 4.424-1.343 5.937-3.766 9.398l-1.699 2.454-1.785 2.523-1.738 2.5c-3.3 4.735-6.65 9.435-10.012 14.125q-2.437-.213-4.875-.437l-2.742-.247C452 170 452 170 450 169c-.778-2.665-.778-2.665-1.508-6.195l-.8-3.86-.406-2.026c-.406-2.017-.827-4.03-1.25-6.044-1.238-6.058-2.315-11.662-2.036-17.875z"/><path fill="#010100" d="M427 643c3.71 1.613 5.948 3.512 8 7 .925 3.656 1.108 7.05 1.063 10.813l-.028 2.957L436 666l2.375.313C441 667 441 667 443 670c-.375 3.188-.375 3.188-1 6h-5l1 2c.04 2 .043 4 0 6l-11 1c-1.354-2.709-1.065-5.01-1-8l-7 1c-1.837-3.782-2.158-5.946-1-10h7l-2-14h-7c-1.858-3.135-2.201-5.375-2-9 4.333-2.466 8.111-2.568 13-2"/><path fill="#010000" d="M168 243c4.732 1.623 8.61 4.198 12.75 6.938l4.512 2.953 2.345 1.54c3.973 2.605 7.965 5.18 11.956 7.756l4.316 2.793L207 267c-.684 3.95-1.788 6.635-4 10-6.185-.397-9.866-2.413-14.902-5.91l-2.19-1.476c-2.29-1.547-4.568-3.111-6.845-4.676a3748 3748 0 0 0-4.674-3.167c-3.806-2.577-7.6-5.17-11.389-7.771.73-4.509 2.322-7.285 5-11M267 601c4.43 1.208 6.981 2.517 10 6-1.395 3.854-3.196 7.027-5.484 10.422l-2.086 3.11c-.72 1.061-1.439 2.124-2.18 3.218l-2.133 3.172q-2.077 3.09-4.174 6.166a153 153 0 0 0-3.62 5.683l-1.526 2.495-1.286 2.196C253 645 253 645 250.5 645.339c-3.518-.477-5.085-1.785-7.501-4.339-.75-3.595.227-5.683 2.095-8.673a312 312 0 0 1 2.901-4.218l1.54-2.258c1.623-2.374 3.262-4.738 4.901-7.101q1.65-2.41 3.3-4.82c7.977-11.644 7.977-11.644 9.263-12.93M254 591c3.89 1.297 6.482 2.707 9 6-.331 3.9-2.606 6.418-4.937 9.438l-1.203 1.569c-1.28 1.669-2.57 3.33-3.86 4.993l-2.61 3.395a3894 3894 0 0 1-5.081 6.601A925 925 0 0 0 237 634c-3.463-.315-5.586-.703-8.437-2.75C227 629 227 629 227.227 626.607c.82-2.768 1.784-4.335 3.582-6.576l1.75-2.213 1.879-2.318 3.824-4.812 1.915-2.395c2.569-3.231 5.073-6.509 7.573-9.793 4.016-5.266 4.016-5.266 6.25-7.5M676 310l3 10c-5.492 3.555-11.486 5.398-17.645 7.444-2.023.675-4.04 1.367-6.056 2.06-7.076 2.39-13.795 4.28-21.299 4.496-1.815-3.858-2.094-6.767-2-11q8.43-2.788 16.87-5.554a2714 2714 0 0 0 5.738-1.892q4.124-1.362 8.251-2.71l2.59-.862 2.425-.789c.702-.23 1.403-.462 2.126-.7 2-.493 2-.493 6-.493M297 153c2.034 3.73 3 5.67 3 10a264 264 0 0 1-5 3c-.913 2.257-1.144 3.51-.455 5.86l.924 1.89.98 2.094L297.5 178a304 304 0 0 1 2.031 4.25l.924 1.89c.691 2.36.472 3.596-.455 5.86-3.679 2.29-5.616 3-10 3q-2.691-5.341-5.375-10.687l-1.54-3.053-1.483-2.96-1.365-2.713c-2.097-4.387-3.518-7.67-3.237-12.587 5.425-2.902 5.425-2.902 8.563-3.437 2.646-.425 2.646-.425 5-2.625C293 153 293 153 297 153M513 621c1.67 2.42 1.67 2.42 3.113 5.61l1.592 3.476.8 1.823a336 336 0 0 0 2.474 5.458c4.376 9.721 4.376 9.721 4.021 14.633-3.937 2.197-6.513 3.183-11 3l-1.61-3.656-2.14-4.844-1.055-2.398c-2.006-4.534-4.104-8.973-6.445-13.344-1.114-2.61-1.028-4.974-.75-7.758 4.087-2.376 6.457-3.718 11-2"/><path fill="#010100" d="M375 652c2.059 2.417 2.033 4.262 2.438 7.438-.438 3.562-.438 3.562-2.5 6.5-3.679 2.582-5.53 2.783-9.938 2.062-3.286-2.162-3.9-3.634-4.937-7.437-.071-4.025.336-5.529 2.937-8.563 4.314-2.756 7.41-1.906 12 0"/><path fill="#010000" d="M333 150c3.128 2.259 3.914 3.703 5 7.438 0 3.562 0 3.562-1.812 6.437-2.543 2.47-3.502 3.034-7 3.5C326 167 326 167 323.125 165c-2.936-4.146-2.84-5.993-2.125-11 3.346-4.5 6.656-5.695 12-4"/><path fill="#010100" d="M529 655c2 2 2 2 2.313 4.875C531 663 531 663 530 665.375c-2.704 2.197-4.706 2.196-8.121 2.008C520 667 520 667 517.937 665.375c-1.282-3.248-.992-5.068.063-8.375 3.266-3.894 6.347-3.12 11-2"/></svg>